M48
; DRILL file {KiCad 5.99.0-unknown-9a4f92dfd~102~ubuntu20.04.1} date Sun Aug 30 02:03:13 2020
; FORMAT={-:-/ absolute / inch / decimal}
; #@! TF.CreationDate,2020-08-30T02:03:13+02:00
; #@! TF.GenerationSoftware,Kicad,Pcbnew,5.99.0-unknown-9a4f92dfd~102~ubuntu20.04.1
; #@! TF.FileFunction,Plated,1,2,PTH
FMAT,2
INCH
T1C0.0157
T2C0.0394
%
G90
G05
T1
X6.5319Y-2.848
X6.587Y-2.9346
X6.65Y-3.026
X6.65Y-3.126
X6.65Y-3.226
X6.65Y-3.326
X6.65Y-3.426
X6.65Y-3.526
X6.65Y-3.626
X6.65Y-3.726
X6.65Y-3.826
X6.65Y-3.926
X6.65Y-4.026
X6.65Y-4.126
X6.65Y-4.226
X6.65Y-4.3362
X6.65Y-4.4386
X6.65Y-4.5409
X6.65Y-4.6433
X6.65Y-4.7457
X6.65Y-4.848
X6.6795Y-2.8598
X6.7435Y-4.848
X6.7524Y-4.5961
X6.7681Y-4.228
X6.7681Y-4.3362
X6.7996Y-4.6984
X6.8075Y-3.3677
X6.8075Y-3.5094
X6.8075Y-3.6669
X6.8154Y-2.8953
X6.8272Y-3.1157
X6.837Y-4.848
X6.839Y-4.4307
X6.839Y-4.5094
X6.8469Y-3.9819
X6.8705Y-4.1472
X6.8862Y-3.8047
X6.8862Y-4.2378
X6.8862Y-4.3362
X6.9157Y-3.3677
X6.9157Y-3.5488
X6.9256Y-2.8953
X6.9256Y-4.0311
X6.9305Y-4.848
X6.9491Y-4.4899
X6.9506Y-4.5317
X6.9551Y-2.9878
X6.965Y-2.914
X6.965Y-4.2378
X6.965Y-4.3923
X6.9748Y-4.0311
X6.9886Y-4.6827
X6.9945Y-3.4012
X7.0043Y-3.1157
X7.0043Y-4.5094
X7.024Y-4.3953
X7.024Y-4.5823
X7.024Y-4.848
X7.0437Y-3.8835
X7.0732Y-4.0311
X7.0929Y-4.228
X7.0929Y-4.3362
X7.1175Y-4.848
X7.1197Y-2.9386
X7.1224Y-3.4406
X7.1224Y-3.5587
X7.1224Y-4.0311
X7.124Y-4.5763
X7.1421Y-3.037
X7.1421Y-3.1157
X7.1776Y-4.6197
X7.1815Y-3.8835
X7.1815Y-4.0311
X7.1913Y-3.3618
X7.1913Y-3.6374
X7.2012Y-2.9484
X7.211Y-4.228
X7.211Y-4.3362
X7.211Y-4.848
X7.2169Y-4.4465
X7.2209Y-2.8697
X7.2406Y-3.1157
X7.2504Y-3.0173
X7.2996Y-4.228
X7.2996Y-4.228
X7.3045Y-4.3362
X7.3045Y-4.848
X7.3291Y-2.8697
X7.398Y-3.026
X7.398Y-3.126
X7.398Y-3.226
X7.398Y-3.326
X7.398Y-3.426
X7.398Y-3.526
X7.398Y-3.626
X7.398Y-3.726
X7.398Y-3.826
X7.398Y-3.926
X7.398Y-4.026
X7.398Y-4.126
X7.398Y-4.226
X7.398Y-4.3362
X7.398Y-4.4386
X7.398Y-4.5409
X7.398Y-4.6433
X7.398Y-4.7457
X7.398Y-4.848
X7.4531Y-2.9425
X7.5083Y-2.8559
T2
X6.8272Y-3.2929
X7.0157Y-3.7299
X6.8272Y-3.1929
X7.0157Y-3.6299
X6.9272Y-3.1929
X6.9272Y-3.2929
X7.0272Y-3.1929
X7.0272Y-3.2929
X7.1272Y-3.1929
X7.1272Y-3.2929
X7.2272Y-3.1929
X7.2272Y-3.2929
X6.9157Y-3.6299
X6.9157Y-3.7299
X7.1157Y-3.6299
X7.1157Y-3.7299
X6.5772Y-2.6791
X6.5772Y-2.7791
X6.6772Y-2.6791
X6.6772Y-2.7791
X6.7772Y-2.6791
X6.7772Y-2.7791
X6.8772Y-2.6791
X6.8772Y-2.7791
X6.9772Y-2.6791
X6.9772Y-2.7791
X7.0772Y-2.6791
X7.0772Y-2.7791
X7.1772Y-2.6791
X7.1772Y-2.7791
X7.2772Y-2.6791
X7.2772Y-2.7791
X7.3772Y-2.6791
X7.3772Y-2.7791
X7.4772Y-2.6791
X7.4772Y-2.7791
X6.7287Y-4.785
X6.8287Y-4.785
X6.9287Y-4.785
X7.0287Y-4.785
X7.1287Y-4.785
X7.2287Y-4.785
X7.3287Y-4.785
T0
M30
