G04 #@! TF.GenerationSoftware,KiCad,Pcbnew,5.99.0-unknown-c173ea14b~104~ubuntu20.04.1*
G04 #@! TF.CreationDate,2020-11-05T16:19:04+01:00*
G04 #@! TF.ProjectId,tc2050-arm2010,74633230-3530-42d6-9172-6d323031302e,rev?*
G04 #@! TF.SameCoordinates,Original*
G04 #@! TF.FileFunction,Soldermask,Top*
G04 #@! TF.FilePolarity,Negative*
%FSLAX46Y46*%
G04 Gerber Fmt 4.6, Leading zero omitted, Abs format (unit mm)*
G04 Created by KiCad (PCBNEW 5.99.0-unknown-c173ea14b~104~ubuntu20.04.1) date 2020-11-05 16:19:04*
%MOMM*%
%LPD*%
G01*
G04 APERTURE LIST*
G04 Aperture macros list*
%AMRoundRect*
0 Rectangle with rounded corners*
0 $1 Rounding radius*
0 $2 $3 $4 $5 $6 $7 $8 $9 X,Y pos of 4 corners*
0 Add a 4 corners polygon primitive as box body*
4,1,4,$2,$3,$4,$5,$6,$7,$8,$9,$2,$3,0*
0 Add four circle primitives for the rounded corners*
1,1,$1+$1,$2,$3,0*
1,1,$1+$1,$4,$5,0*
1,1,$1+$1,$6,$7,0*
1,1,$1+$1,$8,$9,0*
0 Add four rect primitives between the rounded corners*
20,1,$1+$1,$2,$3,$4,$5,0*
20,1,$1+$1,$4,$5,$6,$7,0*
20,1,$1+$1,$6,$7,$8,$9,0*
20,1,$1+$1,$8,$9,$2,$3,0*%
G04 Aperture macros list end*
%ADD10R,1.700000X1.700000*%
%ADD11O,1.700000X1.700000*%
%ADD12RoundRect,0.250000X0.600000X-0.600000X0.600000X0.600000X-0.600000X0.600000X-0.600000X-0.600000X0*%
%ADD13C,1.700000*%
%ADD14R,0.660000X1.350000*%
G04 APERTURE END LIST*
D10*
X189920000Y-70590000D03*
D11*
X189920000Y-68050000D03*
X187380000Y-70590000D03*
X187380000Y-68050000D03*
X184840000Y-70590000D03*
X184840000Y-68050000D03*
X182300000Y-70590000D03*
X182300000Y-68050000D03*
X179760000Y-70590000D03*
X179760000Y-68050000D03*
X177220000Y-70590000D03*
X177220000Y-68050000D03*
X174680000Y-70590000D03*
X174680000Y-68050000D03*
X172140000Y-70590000D03*
X172140000Y-68050000D03*
X169600000Y-70590000D03*
X169600000Y-68050000D03*
X167060000Y-70590000D03*
X167060000Y-68050000D03*
G36*
X186660000Y-74339999D02*
G01*
X186660000Y-73840000D01*
X186664967Y-73840000D01*
X186666432Y-73760059D01*
X186708707Y-73624744D01*
X186787263Y-73506734D01*
X186895782Y-73415514D01*
X187025541Y-73358419D01*
X187160001Y-73340836D01*
X187160001Y-73340000D01*
X187660000Y-73340001D01*
X187660000Y-73340837D01*
X187666109Y-73340038D01*
X187806186Y-73361849D01*
X187934511Y-73422097D01*
X188040769Y-73515941D01*
X188116417Y-73635836D01*
X188155374Y-73772143D01*
X188154959Y-73840000D01*
X188160000Y-73840000D01*
X188159999Y-74340000D01*
X186660000Y-74339999D01*
G37*
G36*
X188154959Y-75140000D02*
G01*
X188154508Y-75213905D01*
X188113889Y-75349726D01*
X188036781Y-75468688D01*
X187929384Y-75561226D01*
X187800332Y-75619903D01*
X187659999Y-75640000D01*
X187160000Y-75639999D01*
X187147784Y-75639850D01*
X187007983Y-75616330D01*
X186880404Y-75554518D01*
X186775300Y-75459383D01*
X186701123Y-75338573D01*
X186663834Y-75201800D01*
X186664967Y-75140000D01*
X186660000Y-75140000D01*
X186660001Y-74640000D01*
X188160000Y-74640001D01*
X188160000Y-75140000D01*
X188154959Y-75140000D01*
G37*
D12*
X173410000Y-83640000D03*
D13*
X173410000Y-81100000D03*
X175950000Y-83640000D03*
X175950000Y-81100000D03*
X178490000Y-83640000D03*
X178490000Y-81100000D03*
X181030000Y-83640000D03*
X181030000Y-81100000D03*
X183570000Y-83640000D03*
X183570000Y-81100000D03*
D14*
X175870000Y-104940000D03*
X175870000Y-100340000D03*
X177140000Y-104940000D03*
X177140000Y-100340000D03*
X178410000Y-104940000D03*
X178410000Y-100340000D03*
X179680000Y-104940000D03*
X179680000Y-100340000D03*
X180950000Y-104940000D03*
X180950000Y-100340000D03*
D12*
X175660000Y-94740000D03*
D13*
X175660000Y-92200000D03*
X178200000Y-94740000D03*
X178200000Y-92200000D03*
X180740000Y-94740000D03*
X180740000Y-92200000D03*
D10*
X170910000Y-121540000D03*
D11*
X173450000Y-121540000D03*
X175990000Y-121540000D03*
X178530000Y-121540000D03*
X181070000Y-121540000D03*
X183610000Y-121540000D03*
X186150000Y-121540000D03*
M02*
