G04 #@! TF.GenerationSoftware,KiCad,Pcbnew,5.99.0-unknown-c173ea14b~104~ubuntu20.04.1*
G04 #@! TF.CreationDate,2020-11-05T04:59:51+01:00*
G04 #@! TF.ProjectId,tc2050-arm2010,74633230-3530-42d6-9172-6d323031302e,rev?*
G04 #@! TF.SameCoordinates,Original*
G04 #@! TF.FileFunction,Legend,Top*
G04 #@! TF.FilePolarity,Positive*
%FSLAX46Y46*%
G04 Gerber Fmt 4.6, Leading zero omitted, Abs format (unit mm)*
G04 Created by KiCad (PCBNEW 5.99.0-unknown-c173ea14b~104~ubuntu20.04.1) date 2020-11-05 04:59:51*
%MOMM*%
%LPD*%
G01*
G04 APERTURE LIST*
%ADD10C,0.150000*%
%ADD11C,0.125000*%
%ADD12C,0.300000*%
%ADD13C,0.120000*%
G04 APERTURE END LIST*
D10*
X173790952Y-102092380D02*
X173790952Y-102806666D01*
X173743333Y-102949523D01*
X173648095Y-103044761D01*
X173505238Y-103092380D01*
X173410000Y-103092380D01*
X174743333Y-103092380D02*
X174267142Y-103092380D01*
X174267142Y-102092380D01*
X175648095Y-102997142D02*
X175600476Y-103044761D01*
X175457619Y-103092380D01*
X175362380Y-103092380D01*
X175219523Y-103044761D01*
X175124285Y-102949523D01*
X175076666Y-102854285D01*
X175029047Y-102663809D01*
X175029047Y-102520952D01*
X175076666Y-102330476D01*
X175124285Y-102235238D01*
X175219523Y-102140000D01*
X175362380Y-102092380D01*
X175457619Y-102092380D01*
X175600476Y-102140000D01*
X175648095Y-102187619D01*
X176362380Y-102092380D02*
X176362380Y-102806666D01*
X176314761Y-102949523D01*
X176219523Y-103044761D01*
X176076666Y-103092380D01*
X175981428Y-103092380D01*
X177314761Y-103092380D02*
X176838571Y-103092380D01*
X176838571Y-102092380D01*
X178219523Y-102997142D02*
X178171904Y-103044761D01*
X178029047Y-103092380D01*
X177933809Y-103092380D01*
X177790952Y-103044761D01*
X177695714Y-102949523D01*
X177648095Y-102854285D01*
X177600476Y-102663809D01*
X177600476Y-102520952D01*
X177648095Y-102330476D01*
X177695714Y-102235238D01*
X177790952Y-102140000D01*
X177933809Y-102092380D01*
X178029047Y-102092380D01*
X178171904Y-102140000D01*
X178219523Y-102187619D01*
X178933809Y-102092380D02*
X178933809Y-102806666D01*
X178886190Y-102949523D01*
X178790952Y-103044761D01*
X178648095Y-103092380D01*
X178552857Y-103092380D01*
X179886190Y-103092380D02*
X179410000Y-103092380D01*
X179410000Y-102092380D01*
X180790952Y-102997142D02*
X180743333Y-103044761D01*
X180600476Y-103092380D01*
X180505238Y-103092380D01*
X180362380Y-103044761D01*
X180267142Y-102949523D01*
X180219523Y-102854285D01*
X180171904Y-102663809D01*
X180171904Y-102520952D01*
X180219523Y-102330476D01*
X180267142Y-102235238D01*
X180362380Y-102140000D01*
X180505238Y-102092380D01*
X180600476Y-102092380D01*
X180743333Y-102140000D01*
X180790952Y-102187619D01*
X181505238Y-102092380D02*
X181505238Y-102806666D01*
X181457619Y-102949523D01*
X181362380Y-103044761D01*
X181219523Y-103092380D01*
X181124285Y-103092380D01*
X182457619Y-103092380D02*
X181981428Y-103092380D01*
X181981428Y-102092380D01*
X183362380Y-102997142D02*
X183314761Y-103044761D01*
X183171904Y-103092380D01*
X183076666Y-103092380D01*
X182933809Y-103044761D01*
X182838571Y-102949523D01*
X182790952Y-102854285D01*
X182743333Y-102663809D01*
X182743333Y-102520952D01*
X182790952Y-102330476D01*
X182838571Y-102235238D01*
X182933809Y-102140000D01*
X183076666Y-102092380D01*
X183171904Y-102092380D01*
X183314761Y-102140000D01*
X183362380Y-102187619D01*
D11*
X176160000Y-119259047D02*
X176183809Y-119211428D01*
X176183809Y-119140000D01*
X176160000Y-119068571D01*
X176112380Y-119020952D01*
X176064761Y-118997142D01*
X175969523Y-118973333D01*
X175898095Y-118973333D01*
X175802857Y-118997142D01*
X175755238Y-119020952D01*
X175707619Y-119068571D01*
X175683809Y-119140000D01*
X175683809Y-119187619D01*
X175707619Y-119259047D01*
X175731428Y-119282857D01*
X175898095Y-119282857D01*
X175898095Y-119187619D01*
X175683809Y-119497142D02*
X176183809Y-119497142D01*
X175683809Y-119782857D01*
X176183809Y-119782857D01*
X175683809Y-120020952D02*
X176183809Y-120020952D01*
X176183809Y-120140000D01*
X176160000Y-120211428D01*
X176112380Y-120259047D01*
X176064761Y-120282857D01*
X175969523Y-120306666D01*
X175898095Y-120306666D01*
X175802857Y-120282857D01*
X175755238Y-120259047D01*
X175707619Y-120211428D01*
X175683809Y-120140000D01*
X175683809Y-120020952D01*
D12*
X169052857Y-111818571D02*
X169052857Y-110818571D01*
X169052857Y-110318571D02*
X168981428Y-110390000D01*
X169052857Y-110461428D01*
X169124285Y-110390000D01*
X169052857Y-110318571D01*
X169052857Y-110461428D01*
X169552857Y-110818571D02*
X170124285Y-110818571D01*
X169767142Y-110318571D02*
X169767142Y-111604285D01*
X169838571Y-111747142D01*
X169981428Y-111818571D01*
X170124285Y-111818571D01*
X170552857Y-111747142D02*
X170695714Y-111818571D01*
X170981428Y-111818571D01*
X171124285Y-111747142D01*
X171195714Y-111604285D01*
X171195714Y-111532857D01*
X171124285Y-111390000D01*
X170981428Y-111318571D01*
X170767142Y-111318571D01*
X170624285Y-111247142D01*
X170552857Y-111104285D01*
X170552857Y-111032857D01*
X170624285Y-110890000D01*
X170767142Y-110818571D01*
X170981428Y-110818571D01*
X171124285Y-110890000D01*
X172052857Y-111818571D02*
X171910000Y-111747142D01*
X171838571Y-111675714D01*
X171767142Y-111532857D01*
X171767142Y-111104285D01*
X171838571Y-110961428D01*
X171910000Y-110890000D01*
X172052857Y-110818571D01*
X172267142Y-110818571D01*
X172410000Y-110890000D01*
X172481428Y-110961428D01*
X172552857Y-111104285D01*
X172552857Y-111532857D01*
X172481428Y-111675714D01*
X172410000Y-111747142D01*
X172267142Y-111818571D01*
X172052857Y-111818571D01*
X173195714Y-110818571D02*
X173195714Y-111818571D01*
X173195714Y-110961428D02*
X173267142Y-110890000D01*
X173410000Y-110818571D01*
X173624285Y-110818571D01*
X173767142Y-110890000D01*
X173838571Y-111032857D01*
X173838571Y-111818571D01*
X174767142Y-111818571D02*
X174624285Y-111747142D01*
X174552857Y-111604285D01*
X174552857Y-110318571D01*
X175195714Y-110818571D02*
X175552857Y-111818571D01*
X175910000Y-110818571D02*
X175552857Y-111818571D01*
X175410000Y-112175714D01*
X175338571Y-112247142D01*
X175195714Y-112318571D01*
X177124285Y-111818571D02*
X177124285Y-111032857D01*
X177052857Y-110890000D01*
X176910000Y-110818571D01*
X176624285Y-110818571D01*
X176481428Y-110890000D01*
X177124285Y-111747142D02*
X176981428Y-111818571D01*
X176624285Y-111818571D01*
X176481428Y-111747142D01*
X176410000Y-111604285D01*
X176410000Y-111461428D01*
X176481428Y-111318571D01*
X176624285Y-111247142D01*
X176981428Y-111247142D01*
X177124285Y-111175714D01*
X178481428Y-110818571D02*
X178481428Y-111818571D01*
X177838571Y-110818571D02*
X177838571Y-111604285D01*
X177910000Y-111747142D01*
X178052857Y-111818571D01*
X178267142Y-111818571D01*
X178410000Y-111747142D01*
X178481428Y-111675714D01*
X179838571Y-111818571D02*
X179838571Y-110318571D01*
X179838571Y-111747142D02*
X179695714Y-111818571D01*
X179410000Y-111818571D01*
X179267142Y-111747142D01*
X179195714Y-111675714D01*
X179124285Y-111532857D01*
X179124285Y-111104285D01*
X179195714Y-110961428D01*
X179267142Y-110890000D01*
X179410000Y-110818571D01*
X179695714Y-110818571D01*
X179838571Y-110890000D01*
X180552857Y-111818571D02*
X180552857Y-110818571D01*
X180552857Y-110318571D02*
X180481428Y-110390000D01*
X180552857Y-110461428D01*
X180624285Y-110390000D01*
X180552857Y-110318571D01*
X180552857Y-110461428D01*
X181481428Y-111818571D02*
X181338571Y-111747142D01*
X181267142Y-111675714D01*
X181195714Y-111532857D01*
X181195714Y-111104285D01*
X181267142Y-110961428D01*
X181338571Y-110890000D01*
X181481428Y-110818571D01*
X181695714Y-110818571D01*
X181838571Y-110890000D01*
X181910000Y-110961428D01*
X181981428Y-111104285D01*
X181981428Y-111532857D01*
X181910000Y-111675714D01*
X181838571Y-111747142D01*
X181695714Y-111818571D01*
X181481428Y-111818571D01*
X182624285Y-111675714D02*
X182695714Y-111747142D01*
X182624285Y-111818571D01*
X182552857Y-111747142D01*
X182624285Y-111675714D01*
X182624285Y-111818571D01*
X183981428Y-111747142D02*
X183838571Y-111818571D01*
X183552857Y-111818571D01*
X183410000Y-111747142D01*
X183338571Y-111675714D01*
X183267142Y-111532857D01*
X183267142Y-111104285D01*
X183338571Y-110961428D01*
X183410000Y-110890000D01*
X183552857Y-110818571D01*
X183838571Y-110818571D01*
X183981428Y-110890000D01*
X184838571Y-111818571D02*
X184695714Y-111747142D01*
X184624285Y-111675714D01*
X184552857Y-111532857D01*
X184552857Y-111104285D01*
X184624285Y-110961428D01*
X184695714Y-110890000D01*
X184838571Y-110818571D01*
X185052857Y-110818571D01*
X185195714Y-110890000D01*
X185267142Y-110961428D01*
X185338571Y-111104285D01*
X185338571Y-111532857D01*
X185267142Y-111675714D01*
X185195714Y-111747142D01*
X185052857Y-111818571D01*
X184838571Y-111818571D01*
X185981428Y-111818571D02*
X185981428Y-110818571D01*
X185981428Y-110961428D02*
X186052857Y-110890000D01*
X186195714Y-110818571D01*
X186410000Y-110818571D01*
X186552857Y-110890000D01*
X186624285Y-111032857D01*
X186624285Y-111818571D01*
X186624285Y-111032857D02*
X186695714Y-110890000D01*
X186838571Y-110818571D01*
X187052857Y-110818571D01*
X187195714Y-110890000D01*
X187267142Y-111032857D01*
X187267142Y-111818571D01*
D10*
X169469523Y-76592380D02*
X170040952Y-76592380D01*
X169755238Y-77592380D02*
X169755238Y-76592380D01*
X170945714Y-77497142D02*
X170898095Y-77544761D01*
X170755238Y-77592380D01*
X170660000Y-77592380D01*
X170517142Y-77544761D01*
X170421904Y-77449523D01*
X170374285Y-77354285D01*
X170326666Y-77163809D01*
X170326666Y-77020952D01*
X170374285Y-76830476D01*
X170421904Y-76735238D01*
X170517142Y-76640000D01*
X170660000Y-76592380D01*
X170755238Y-76592380D01*
X170898095Y-76640000D01*
X170945714Y-76687619D01*
X171326666Y-76687619D02*
X171374285Y-76640000D01*
X171469523Y-76592380D01*
X171707619Y-76592380D01*
X171802857Y-76640000D01*
X171850476Y-76687619D01*
X171898095Y-76782857D01*
X171898095Y-76878095D01*
X171850476Y-77020952D01*
X171279047Y-77592380D01*
X171898095Y-77592380D01*
X172517142Y-76592380D02*
X172612380Y-76592380D01*
X172707619Y-76640000D01*
X172755238Y-76687619D01*
X172802857Y-76782857D01*
X172850476Y-76973333D01*
X172850476Y-77211428D01*
X172802857Y-77401904D01*
X172755238Y-77497142D01*
X172707619Y-77544761D01*
X172612380Y-77592380D01*
X172517142Y-77592380D01*
X172421904Y-77544761D01*
X172374285Y-77497142D01*
X172326666Y-77401904D01*
X172279047Y-77211428D01*
X172279047Y-76973333D01*
X172326666Y-76782857D01*
X172374285Y-76687619D01*
X172421904Y-76640000D01*
X172517142Y-76592380D01*
X173755238Y-76592380D02*
X173279047Y-76592380D01*
X173231428Y-77068571D01*
X173279047Y-77020952D01*
X173374285Y-76973333D01*
X173612380Y-76973333D01*
X173707619Y-77020952D01*
X173755238Y-77068571D01*
X173802857Y-77163809D01*
X173802857Y-77401904D01*
X173755238Y-77497142D01*
X173707619Y-77544761D01*
X173612380Y-77592380D01*
X173374285Y-77592380D01*
X173279047Y-77544761D01*
X173231428Y-77497142D01*
X174421904Y-76592380D02*
X174517142Y-76592380D01*
X174612380Y-76640000D01*
X174660000Y-76687619D01*
X174707619Y-76782857D01*
X174755238Y-76973333D01*
X174755238Y-77211428D01*
X174707619Y-77401904D01*
X174660000Y-77497142D01*
X174612380Y-77544761D01*
X174517142Y-77592380D01*
X174421904Y-77592380D01*
X174326666Y-77544761D01*
X174279047Y-77497142D01*
X174231428Y-77401904D01*
X174183809Y-77211428D01*
X174183809Y-76973333D01*
X174231428Y-76782857D01*
X174279047Y-76687619D01*
X174326666Y-76640000D01*
X174421904Y-76592380D01*
X172076666Y-105420952D02*
X172076666Y-104944761D01*
X172362380Y-105516190D02*
X171362380Y-105182857D01*
X172362380Y-104849523D01*
X172362380Y-103944761D02*
X171886190Y-104278095D01*
X172362380Y-104516190D02*
X171362380Y-104516190D01*
X171362380Y-104135238D01*
X171410000Y-104040000D01*
X171457619Y-103992380D01*
X171552857Y-103944761D01*
X171695714Y-103944761D01*
X171790952Y-103992380D01*
X171838571Y-104040000D01*
X171886190Y-104135238D01*
X171886190Y-104516190D01*
X172362380Y-103516190D02*
X171362380Y-103516190D01*
X172076666Y-103182857D01*
X171362380Y-102849523D01*
X172362380Y-102849523D01*
X171981428Y-102373333D02*
X171981428Y-101611428D01*
X172362380Y-100611428D02*
X172362380Y-101182857D01*
X172362380Y-100897142D02*
X171362380Y-100897142D01*
X171505238Y-100992380D01*
X171600476Y-101087619D01*
X171648095Y-101182857D01*
X171362380Y-99992380D02*
X171362380Y-99897142D01*
X171410000Y-99801904D01*
X171457619Y-99754285D01*
X171552857Y-99706666D01*
X171743333Y-99659047D01*
X171981428Y-99659047D01*
X172171904Y-99706666D01*
X172267142Y-99754285D01*
X172314761Y-99801904D01*
X172362380Y-99897142D01*
X172362380Y-99992380D01*
X172314761Y-100087619D01*
X172267142Y-100135238D01*
X172171904Y-100182857D01*
X171981428Y-100230476D01*
X171743333Y-100230476D01*
X171552857Y-100182857D01*
X171457619Y-100135238D01*
X171410000Y-100087619D01*
X171362380Y-99992380D01*
D11*
X170933809Y-118973334D02*
X170433809Y-119140001D01*
X170933809Y-119306667D01*
X170481428Y-119759048D02*
X170457619Y-119735239D01*
X170433809Y-119663810D01*
X170433809Y-119616191D01*
X170457619Y-119544762D01*
X170505238Y-119497143D01*
X170552857Y-119473334D01*
X170648095Y-119449524D01*
X170719523Y-119449524D01*
X170814761Y-119473334D01*
X170862380Y-119497143D01*
X170910000Y-119544762D01*
X170933809Y-119616191D01*
X170933809Y-119663810D01*
X170910000Y-119735239D01*
X170886190Y-119759048D01*
X170481428Y-120259048D02*
X170457619Y-120235239D01*
X170433809Y-120163810D01*
X170433809Y-120116191D01*
X170457619Y-120044762D01*
X170505238Y-119997143D01*
X170552857Y-119973334D01*
X170648095Y-119949524D01*
X170719523Y-119949524D01*
X170814761Y-119973334D01*
X170862380Y-119997143D01*
X170910000Y-120044762D01*
X170933809Y-120116191D01*
X170933809Y-120163810D01*
X170910000Y-120235239D01*
X170886190Y-120259048D01*
X173231428Y-119342380D02*
X173207619Y-119318571D01*
X173183809Y-119247142D01*
X173183809Y-119199523D01*
X173207619Y-119128095D01*
X173255238Y-119080476D01*
X173302857Y-119056666D01*
X173398095Y-119032857D01*
X173469523Y-119032857D01*
X173564761Y-119056666D01*
X173612380Y-119080476D01*
X173660000Y-119128095D01*
X173683809Y-119199523D01*
X173683809Y-119247142D01*
X173660000Y-119318571D01*
X173636190Y-119342380D01*
X173183809Y-119794761D02*
X173183809Y-119556666D01*
X173683809Y-119556666D01*
X173183809Y-119961428D02*
X173683809Y-119961428D01*
X173183809Y-120247142D02*
X173469523Y-120032857D01*
X173683809Y-120247142D02*
X173398095Y-119961428D01*
X183457619Y-118699524D02*
X183433809Y-118770953D01*
X183433809Y-118890001D01*
X183457619Y-118937620D01*
X183481428Y-118961429D01*
X183529047Y-118985239D01*
X183576666Y-118985239D01*
X183624285Y-118961429D01*
X183648095Y-118937620D01*
X183671904Y-118890001D01*
X183695714Y-118794762D01*
X183719523Y-118747143D01*
X183743333Y-118723334D01*
X183790952Y-118699524D01*
X183838571Y-118699524D01*
X183886190Y-118723334D01*
X183910000Y-118747143D01*
X183933809Y-118794762D01*
X183933809Y-118913810D01*
X183910000Y-118985239D01*
X183933809Y-119151905D02*
X183433809Y-119270953D01*
X183790952Y-119366191D01*
X183433809Y-119461429D01*
X183933809Y-119580477D01*
X183933809Y-119866191D02*
X183933809Y-119961429D01*
X183910000Y-120009048D01*
X183862380Y-120056667D01*
X183767142Y-120080477D01*
X183600476Y-120080477D01*
X183505238Y-120056667D01*
X183457619Y-120009048D01*
X183433809Y-119961429D01*
X183433809Y-119866191D01*
X183457619Y-119818572D01*
X183505238Y-119770953D01*
X183600476Y-119747143D01*
X183767142Y-119747143D01*
X183862380Y-119770953D01*
X183910000Y-119818572D01*
X183933809Y-119866191D01*
D10*
X169362380Y-96230476D02*
X169362380Y-95659047D01*
X170362380Y-95944761D02*
X169362380Y-95944761D01*
X170267142Y-94754285D02*
X170314761Y-94801904D01*
X170362380Y-94944761D01*
X170362380Y-95040000D01*
X170314761Y-95182857D01*
X170219523Y-95278095D01*
X170124285Y-95325714D01*
X169933809Y-95373333D01*
X169790952Y-95373333D01*
X169600476Y-95325714D01*
X169505238Y-95278095D01*
X169410000Y-95182857D01*
X169362380Y-95040000D01*
X169362380Y-94944761D01*
X169410000Y-94801904D01*
X169457619Y-94754285D01*
X169457619Y-94373333D02*
X169410000Y-94325714D01*
X169362380Y-94230476D01*
X169362380Y-93992380D01*
X169410000Y-93897142D01*
X169457619Y-93849523D01*
X169552857Y-93801904D01*
X169648095Y-93801904D01*
X169790952Y-93849523D01*
X170362380Y-94420952D01*
X170362380Y-93801904D01*
X169362380Y-93182857D02*
X169362380Y-93087619D01*
X169410000Y-92992380D01*
X169457619Y-92944761D01*
X169552857Y-92897142D01*
X169743333Y-92849523D01*
X169981428Y-92849523D01*
X170171904Y-92897142D01*
X170267142Y-92944761D01*
X170314761Y-92992380D01*
X170362380Y-93087619D01*
X170362380Y-93182857D01*
X170314761Y-93278095D01*
X170267142Y-93325714D01*
X170171904Y-93373333D01*
X169981428Y-93420952D01*
X169743333Y-93420952D01*
X169552857Y-93373333D01*
X169457619Y-93325714D01*
X169410000Y-93278095D01*
X169362380Y-93182857D01*
X169362380Y-92516190D02*
X169362380Y-91897142D01*
X169743333Y-92230476D01*
X169743333Y-92087619D01*
X169790952Y-91992380D01*
X169838571Y-91944761D01*
X169933809Y-91897142D01*
X170171904Y-91897142D01*
X170267142Y-91944761D01*
X170314761Y-91992380D01*
X170362380Y-92087619D01*
X170362380Y-92373333D01*
X170314761Y-92468571D01*
X170267142Y-92516190D01*
X169362380Y-91278095D02*
X169362380Y-91182857D01*
X169410000Y-91087619D01*
X169457619Y-91040000D01*
X169552857Y-90992380D01*
X169743333Y-90944761D01*
X169981428Y-90944761D01*
X170171904Y-90992380D01*
X170267142Y-91040000D01*
X170314761Y-91087619D01*
X170362380Y-91182857D01*
X170362380Y-91278095D01*
X170314761Y-91373333D01*
X170267142Y-91420952D01*
X170171904Y-91468571D01*
X169981428Y-91516190D01*
X169743333Y-91516190D01*
X169552857Y-91468571D01*
X169457619Y-91420952D01*
X169410000Y-91373333D01*
X169362380Y-91278095D01*
D11*
X186433809Y-118878095D02*
X186433809Y-119163809D01*
X185933809Y-119020952D02*
X186433809Y-119020952D01*
X185933809Y-119330476D02*
X186433809Y-119330476D01*
X186433809Y-119449523D01*
X186410000Y-119520952D01*
X186362380Y-119568571D01*
X186314761Y-119592380D01*
X186219523Y-119616190D01*
X186148095Y-119616190D01*
X186052857Y-119592380D01*
X186005238Y-119568571D01*
X185957619Y-119520952D01*
X185933809Y-119449523D01*
X185933809Y-119330476D01*
X185933809Y-119830476D02*
X186433809Y-119830476D01*
X178183809Y-119128096D02*
X178683809Y-119128096D01*
X178683809Y-119247143D01*
X178660000Y-119318572D01*
X178612380Y-119366191D01*
X178564761Y-119390001D01*
X178469523Y-119413810D01*
X178398095Y-119413810D01*
X178302857Y-119390001D01*
X178255238Y-119366191D01*
X178207619Y-119318572D01*
X178183809Y-119247143D01*
X178183809Y-119128096D01*
X178183809Y-119628096D02*
X178683809Y-119628096D01*
X178683809Y-119961429D02*
X178683809Y-120056667D01*
X178660000Y-120104286D01*
X178612380Y-120151905D01*
X178517142Y-120175715D01*
X178350476Y-120175715D01*
X178255238Y-120151905D01*
X178207619Y-120104286D01*
X178183809Y-120056667D01*
X178183809Y-119961429D01*
X178207619Y-119913810D01*
X178255238Y-119866191D01*
X178350476Y-119842381D01*
X178517142Y-119842381D01*
X178612380Y-119866191D01*
X178660000Y-119913810D01*
X178683809Y-119961429D01*
D12*
X187838571Y-106497142D02*
X186838571Y-106497142D01*
X186338571Y-106497142D02*
X186410000Y-106568571D01*
X186481428Y-106497142D01*
X186410000Y-106425714D01*
X186338571Y-106497142D01*
X186481428Y-106497142D01*
X186838571Y-105997142D02*
X186838571Y-105425714D01*
X186338571Y-105782857D02*
X187624285Y-105782857D01*
X187767142Y-105711428D01*
X187838571Y-105568571D01*
X187838571Y-105425714D01*
X187767142Y-104997142D02*
X187838571Y-104854285D01*
X187838571Y-104568571D01*
X187767142Y-104425714D01*
X187624285Y-104354285D01*
X187552857Y-104354285D01*
X187410000Y-104425714D01*
X187338571Y-104568571D01*
X187338571Y-104782857D01*
X187267142Y-104925714D01*
X187124285Y-104997142D01*
X187052857Y-104997142D01*
X186910000Y-104925714D01*
X186838571Y-104782857D01*
X186838571Y-104568571D01*
X186910000Y-104425714D01*
X187838571Y-103497142D02*
X187767142Y-103640000D01*
X187695714Y-103711428D01*
X187552857Y-103782857D01*
X187124285Y-103782857D01*
X186981428Y-103711428D01*
X186910000Y-103640000D01*
X186838571Y-103497142D01*
X186838571Y-103282857D01*
X186910000Y-103140000D01*
X186981428Y-103068571D01*
X187124285Y-102997142D01*
X187552857Y-102997142D01*
X187695714Y-103068571D01*
X187767142Y-103140000D01*
X187838571Y-103282857D01*
X187838571Y-103497142D01*
X186838571Y-102354285D02*
X187838571Y-102354285D01*
X186981428Y-102354285D02*
X186910000Y-102282857D01*
X186838571Y-102140000D01*
X186838571Y-101925714D01*
X186910000Y-101782857D01*
X187052857Y-101711428D01*
X187838571Y-101711428D01*
X187838571Y-100782857D02*
X187767142Y-100925714D01*
X187624285Y-100997142D01*
X186338571Y-100997142D01*
X186838571Y-100354285D02*
X187838571Y-99997142D01*
X186838571Y-99640000D02*
X187838571Y-99997142D01*
X188195714Y-100140000D01*
X188267142Y-100211428D01*
X188338571Y-100354285D01*
X187838571Y-98425714D02*
X187052857Y-98425714D01*
X186910000Y-98497142D01*
X186838571Y-98640000D01*
X186838571Y-98925714D01*
X186910000Y-99068571D01*
X187767142Y-98425714D02*
X187838571Y-98568571D01*
X187838571Y-98925714D01*
X187767142Y-99068571D01*
X187624285Y-99140000D01*
X187481428Y-99140000D01*
X187338571Y-99068571D01*
X187267142Y-98925714D01*
X187267142Y-98568571D01*
X187195714Y-98425714D01*
X186838571Y-97068571D02*
X187838571Y-97068571D01*
X186838571Y-97711428D02*
X187624285Y-97711428D01*
X187767142Y-97640000D01*
X187838571Y-97497142D01*
X187838571Y-97282857D01*
X187767142Y-97140000D01*
X187695714Y-97068571D01*
X187838571Y-95711428D02*
X186338571Y-95711428D01*
X187767142Y-95711428D02*
X187838571Y-95854285D01*
X187838571Y-96140000D01*
X187767142Y-96282857D01*
X187695714Y-96354285D01*
X187552857Y-96425714D01*
X187124285Y-96425714D01*
X186981428Y-96354285D01*
X186910000Y-96282857D01*
X186838571Y-96140000D01*
X186838571Y-95854285D01*
X186910000Y-95711428D01*
X187838571Y-94997142D02*
X186838571Y-94997142D01*
X186338571Y-94997142D02*
X186410000Y-95068571D01*
X186481428Y-94997142D01*
X186410000Y-94925714D01*
X186338571Y-94997142D01*
X186481428Y-94997142D01*
X187838571Y-94068571D02*
X187767142Y-94211428D01*
X187695714Y-94282857D01*
X187552857Y-94354285D01*
X187124285Y-94354285D01*
X186981428Y-94282857D01*
X186910000Y-94211428D01*
X186838571Y-94068571D01*
X186838571Y-93854285D01*
X186910000Y-93711428D01*
X186981428Y-93640000D01*
X187124285Y-93568571D01*
X187552857Y-93568571D01*
X187695714Y-93640000D01*
X187767142Y-93711428D01*
X187838571Y-93854285D01*
X187838571Y-94068571D01*
X187695714Y-92925714D02*
X187767142Y-92854285D01*
X187838571Y-92925714D01*
X187767142Y-92997142D01*
X187695714Y-92925714D01*
X187838571Y-92925714D01*
X187767142Y-91568571D02*
X187838571Y-91711428D01*
X187838571Y-91997142D01*
X187767142Y-92140000D01*
X187695714Y-92211428D01*
X187552857Y-92282857D01*
X187124285Y-92282857D01*
X186981428Y-92211428D01*
X186910000Y-92140000D01*
X186838571Y-91997142D01*
X186838571Y-91711428D01*
X186910000Y-91568571D01*
X187838571Y-90711428D02*
X187767142Y-90854285D01*
X187695714Y-90925714D01*
X187552857Y-90997142D01*
X187124285Y-90997142D01*
X186981428Y-90925714D01*
X186910000Y-90854285D01*
X186838571Y-90711428D01*
X186838571Y-90497142D01*
X186910000Y-90354285D01*
X186981428Y-90282857D01*
X187124285Y-90211428D01*
X187552857Y-90211428D01*
X187695714Y-90282857D01*
X187767142Y-90354285D01*
X187838571Y-90497142D01*
X187838571Y-90711428D01*
X187838571Y-89568571D02*
X186838571Y-89568571D01*
X186981428Y-89568571D02*
X186910000Y-89497142D01*
X186838571Y-89354285D01*
X186838571Y-89140000D01*
X186910000Y-88997142D01*
X187052857Y-88925714D01*
X187838571Y-88925714D01*
X187052857Y-88925714D02*
X186910000Y-88854285D01*
X186838571Y-88711428D01*
X186838571Y-88497142D01*
X186910000Y-88354285D01*
X187052857Y-88282857D01*
X187838571Y-88282857D01*
D10*
X185195714Y-76592380D02*
X185862380Y-76592380D01*
X185290952Y-76592380D02*
X185243333Y-76544761D01*
X185195714Y-76449523D01*
X185195714Y-76306666D01*
X185243333Y-76211428D01*
X185338571Y-76163809D01*
X185862380Y-76163809D01*
X184862380Y-75830476D02*
X184862380Y-75259047D01*
X185862380Y-75544761D02*
X184862380Y-75544761D01*
X185862380Y-74354285D02*
X185386190Y-74687619D01*
X185862380Y-74925714D02*
X184862380Y-74925714D01*
X184862380Y-74544761D01*
X184910000Y-74449523D01*
X184957619Y-74401904D01*
X185052857Y-74354285D01*
X185195714Y-74354285D01*
X185290952Y-74401904D01*
X185338571Y-74449523D01*
X185386190Y-74544761D01*
X185386190Y-74925714D01*
X185814761Y-73973333D02*
X185862380Y-73830476D01*
X185862380Y-73592380D01*
X185814761Y-73497142D01*
X185767142Y-73449523D01*
X185671904Y-73401904D01*
X185576666Y-73401904D01*
X185481428Y-73449523D01*
X185433809Y-73497142D01*
X185386190Y-73592380D01*
X185338571Y-73782857D01*
X185290952Y-73878095D01*
X185243333Y-73925714D01*
X185148095Y-73973333D01*
X185052857Y-73973333D01*
X184957619Y-73925714D01*
X184910000Y-73878095D01*
X184862380Y-73782857D01*
X184862380Y-73544761D01*
X184910000Y-73401904D01*
X184862380Y-73116190D02*
X184862380Y-72544761D01*
X185862380Y-72830476D02*
X184862380Y-72830476D01*
D11*
X181017142Y-118604285D02*
X180683809Y-118604285D01*
X180969523Y-118604285D02*
X180993333Y-118628095D01*
X181017142Y-118675714D01*
X181017142Y-118747142D01*
X180993333Y-118794761D01*
X180945714Y-118818571D01*
X180683809Y-118818571D01*
X180683809Y-119342380D02*
X180921904Y-119175714D01*
X180683809Y-119056666D02*
X181183809Y-119056666D01*
X181183809Y-119247142D01*
X181160000Y-119294761D01*
X181136190Y-119318571D01*
X181088571Y-119342380D01*
X181017142Y-119342380D01*
X180969523Y-119318571D01*
X180945714Y-119294761D01*
X180921904Y-119247142D01*
X180921904Y-119056666D01*
X180707619Y-119532857D02*
X180683809Y-119604285D01*
X180683809Y-119723333D01*
X180707619Y-119770952D01*
X180731428Y-119794761D01*
X180779047Y-119818571D01*
X180826666Y-119818571D01*
X180874285Y-119794761D01*
X180898095Y-119770952D01*
X180921904Y-119723333D01*
X180945714Y-119628095D01*
X180969523Y-119580476D01*
X180993333Y-119556666D01*
X181040952Y-119532857D01*
X181088571Y-119532857D01*
X181136190Y-119556666D01*
X181160000Y-119580476D01*
X181183809Y-119628095D01*
X181183809Y-119747142D01*
X181160000Y-119818571D01*
X181183809Y-119961428D02*
X181183809Y-120247142D01*
X180683809Y-120104285D02*
X181183809Y-120104285D01*
D13*
X183570000Y-57960000D02*
X183570000Y-66590000D01*
X191250000Y-71700000D02*
X189920000Y-71700000D01*
X169240000Y-69100000D02*
X169240000Y-69540000D01*
X189560000Y-66590000D02*
X189560000Y-67000000D01*
X171780000Y-66590000D02*
X171780000Y-67000000D01*
X191011905Y-57960000D02*
X191011905Y-66590000D01*
X189240480Y-57960000D02*
X189240480Y-66590000D01*
X190303335Y-57960000D02*
X190303335Y-66590000D01*
X190280000Y-66590000D02*
X190280000Y-67000000D01*
X169240000Y-66590000D02*
X169240000Y-67000000D01*
X167420000Y-66590000D02*
X167420000Y-67000000D01*
X186110000Y-57960000D02*
X186110000Y-66590000D01*
X188768100Y-57960000D02*
X188768100Y-66590000D01*
X172500000Y-69100000D02*
X172500000Y-69540000D01*
X174320000Y-66590000D02*
X174320000Y-67000000D01*
X185200000Y-66590000D02*
X185200000Y-67000000D01*
X178490000Y-57960000D02*
X178490000Y-66590000D01*
X181030000Y-57960000D02*
X181030000Y-66590000D01*
X191250000Y-70590000D02*
X191250000Y-71700000D01*
X189476670Y-57960000D02*
X189476670Y-66590000D01*
X188886195Y-57960000D02*
X188886195Y-66590000D01*
X191250000Y-57960000D02*
X191250000Y-66590000D01*
X189122385Y-57960000D02*
X189122385Y-66590000D01*
X191250000Y-57960000D02*
X165730000Y-57960000D01*
X190893810Y-57960000D02*
X190893810Y-66590000D01*
X182660000Y-66590000D02*
X182660000Y-67000000D01*
X174320000Y-69100000D02*
X174320000Y-69540000D01*
X189712860Y-57960000D02*
X189712860Y-66590000D01*
X165730000Y-57960000D02*
X165730000Y-66590000D01*
X179400000Y-66590000D02*
X179400000Y-67000000D01*
X169960000Y-66590000D02*
X169960000Y-67000000D01*
X190280000Y-69100000D02*
X190280000Y-69480000D01*
X170870000Y-57960000D02*
X170870000Y-66590000D01*
X190539525Y-57960000D02*
X190539525Y-66590000D01*
X176860000Y-69100000D02*
X176860000Y-69540000D01*
X176860000Y-66590000D02*
X176860000Y-67000000D01*
X171780000Y-69100000D02*
X171780000Y-69540000D01*
X181940000Y-66590000D02*
X181940000Y-67000000D01*
X189004290Y-57960000D02*
X189004290Y-66590000D01*
X187020000Y-66590000D02*
X187020000Y-67000000D01*
X190067145Y-57960000D02*
X190067145Y-66590000D01*
X175040000Y-69100000D02*
X175040000Y-69540000D01*
X187740000Y-69100000D02*
X187740000Y-69540000D01*
X166700000Y-66590000D02*
X166700000Y-67000000D01*
X190657620Y-57960000D02*
X190657620Y-66590000D01*
X185200000Y-69100000D02*
X185200000Y-69540000D01*
X184480000Y-69100000D02*
X184480000Y-69540000D01*
X169960000Y-69100000D02*
X169960000Y-69540000D01*
X181940000Y-69100000D02*
X181940000Y-69540000D01*
X189949050Y-57960000D02*
X189949050Y-66590000D01*
X177580000Y-66590000D02*
X177580000Y-67000000D01*
X172500000Y-66590000D02*
X172500000Y-67000000D01*
X190185240Y-57960000D02*
X190185240Y-66590000D01*
X188650000Y-57960000D02*
X188650000Y-66590000D01*
X187020000Y-69100000D02*
X187020000Y-69540000D01*
X189830955Y-57960000D02*
X189830955Y-66590000D01*
X180120000Y-66590000D02*
X180120000Y-67000000D01*
X179400000Y-69100000D02*
X179400000Y-69540000D01*
X189358575Y-57960000D02*
X189358575Y-66590000D01*
X190421430Y-57960000D02*
X190421430Y-66590000D01*
X187740000Y-66590000D02*
X187740000Y-67000000D01*
X173410000Y-57960000D02*
X173410000Y-66590000D01*
X190775715Y-57960000D02*
X190775715Y-66590000D01*
X189594765Y-57960000D02*
X189594765Y-66590000D01*
X191250000Y-66590000D02*
X165730000Y-66590000D01*
X168330000Y-57960000D02*
X168330000Y-66590000D01*
X166700000Y-69100000D02*
X166700000Y-69540000D01*
X175950000Y-57960000D02*
X175950000Y-66590000D01*
X167420000Y-69100000D02*
X167420000Y-69540000D01*
X184480000Y-66590000D02*
X184480000Y-67000000D01*
X182660000Y-69100000D02*
X182660000Y-69540000D01*
X180120000Y-69100000D02*
X180120000Y-69540000D01*
X177580000Y-69100000D02*
X177580000Y-69540000D01*
X189560000Y-69100000D02*
X189560000Y-69480000D01*
X175040000Y-66590000D02*
X175040000Y-67000000D01*
X191130000Y-57960000D02*
X191130000Y-66590000D01*
X187710000Y-75890000D02*
X187110000Y-75890000D01*
X188410000Y-73790000D02*
X188410000Y-75190000D01*
X186410000Y-75190000D02*
X186410000Y-73790000D01*
X187110000Y-73090000D02*
X187710000Y-73090000D01*
X187110000Y-75890000D02*
G75*
G02*
X186410000Y-75190000I0J700000D01*
G01*
X187710000Y-73090000D02*
G75*
G02*
X188410000Y-73790000I0J-700000D01*
G01*
X186410000Y-73790000D02*
G75*
G02*
X187110000Y-73090000I700000J0D01*
G01*
X188410000Y-75190000D02*
G75*
G02*
X187710000Y-75890000I-700000J0D01*
G01*
X176440000Y-86930000D02*
X176440000Y-85620000D01*
X187480000Y-79120000D02*
X187480000Y-85620000D01*
X169500000Y-79120000D02*
X187480000Y-79120000D01*
X180540000Y-85620000D02*
X180540000Y-86930000D01*
X188780000Y-77810000D02*
X188780000Y-86930000D01*
X176440000Y-85620000D02*
X169500000Y-85620000D01*
X168200000Y-77810000D02*
X188780000Y-77810000D01*
X188780000Y-86930000D02*
X168200000Y-86930000D01*
X169500000Y-85620000D02*
X169500000Y-79120000D01*
X187480000Y-85620000D02*
X180540000Y-85620000D01*
X180540000Y-85620000D02*
X180540000Y-85620000D01*
X173410000Y-87320000D02*
X172910000Y-88320000D01*
X168200000Y-86930000D02*
X168200000Y-77810000D01*
X173910000Y-88320000D02*
X173410000Y-87320000D01*
X172910000Y-88320000D02*
X173910000Y-88320000D01*
X174340000Y-105950000D02*
X173070000Y-104680000D01*
X174340000Y-105950000D02*
X183750000Y-105950000D01*
X173070000Y-99330000D02*
X183750000Y-99330000D01*
X183750000Y-105950000D02*
X183750000Y-99330000D01*
X173070000Y-104680000D02*
X173070000Y-99330000D01*
X176160000Y-99420000D02*
X175660000Y-98420000D01*
X184650000Y-90220000D02*
X184650000Y-96720000D01*
X176150000Y-96720000D02*
X171750000Y-96720000D01*
X180250000Y-96720000D02*
X180250000Y-98030000D01*
X175660000Y-98420000D02*
X175160000Y-99420000D01*
X170450000Y-88910000D02*
X185950000Y-88910000D01*
X185950000Y-98030000D02*
X170450000Y-98030000D01*
X171750000Y-96720000D02*
X171750000Y-90220000D01*
X185950000Y-88910000D02*
X185950000Y-98030000D01*
X184650000Y-96720000D02*
X180250000Y-96720000D01*
X176150000Y-98030000D02*
X176150000Y-96720000D01*
X170450000Y-98030000D02*
X170450000Y-88910000D01*
X175160000Y-99420000D02*
X176160000Y-99420000D01*
X180250000Y-96720000D02*
X180250000Y-96720000D01*
X171750000Y-90220000D02*
X184650000Y-90220000D01*
M02*
