G04 #@! TF.GenerationSoftware,KiCad,Pcbnew,5.99.0-unknown-270aaec~100~ubuntu19.10.1*
G04 #@! TF.CreationDate,2020-01-16T19:11:27+01:00*
G04 #@! TF.ProjectId,tc2050-arm2010,74633230-3530-42d6-9172-6d323031302e,rev?*
G04 #@! TF.SameCoordinates,Original*
G04 #@! TF.FileFunction,Legend,Top*
G04 #@! TF.FilePolarity,Positive*
%FSLAX46Y46*%
G04 Gerber Fmt 4.6, Leading zero omitted, Abs format (unit mm)*
G04 Created by KiCad (PCBNEW 5.99.0-unknown-270aaec~100~ubuntu19.10.1) date 2020-01-16 19:11:27*
%MOMM*%
%LPD*%
G04 APERTURE LIST*
%ADD10C,0.120000*%
%ADD11C,0.150000*%
G04 APERTURE END LIST*
D10*
X186630000Y-66110000D02*
X186630000Y-74740000D01*
X186511905Y-66110000D02*
X186511905Y-74740000D01*
X186393810Y-66110000D02*
X186393810Y-74740000D01*
X186275715Y-66110000D02*
X186275715Y-74740000D01*
X186157620Y-66110000D02*
X186157620Y-74740000D01*
X186039525Y-66110000D02*
X186039525Y-74740000D01*
X185921430Y-66110000D02*
X185921430Y-74740000D01*
X185803335Y-66110000D02*
X185803335Y-74740000D01*
X185685240Y-66110000D02*
X185685240Y-74740000D01*
X185567145Y-66110000D02*
X185567145Y-74740000D01*
X185449050Y-66110000D02*
X185449050Y-74740000D01*
X185330955Y-66110000D02*
X185330955Y-74740000D01*
X185212860Y-66110000D02*
X185212860Y-74740000D01*
X185094765Y-66110000D02*
X185094765Y-74740000D01*
X184976670Y-66110000D02*
X184976670Y-74740000D01*
X184858575Y-66110000D02*
X184858575Y-74740000D01*
X184740480Y-66110000D02*
X184740480Y-74740000D01*
X184622385Y-66110000D02*
X184622385Y-74740000D01*
X184504290Y-66110000D02*
X184504290Y-74740000D01*
X184386195Y-66110000D02*
X184386195Y-74740000D01*
X184268100Y-66110000D02*
X184268100Y-74740000D01*
X185780000Y-74740000D02*
X185780000Y-75150000D01*
X185780000Y-77250000D02*
X185780000Y-77630000D01*
X185060000Y-74740000D02*
X185060000Y-75150000D01*
X185060000Y-77250000D02*
X185060000Y-77630000D01*
X183240000Y-74740000D02*
X183240000Y-75150000D01*
X183240000Y-77250000D02*
X183240000Y-77690000D01*
X182520000Y-74740000D02*
X182520000Y-75150000D01*
X182520000Y-77250000D02*
X182520000Y-77690000D01*
X180700000Y-74740000D02*
X180700000Y-75150000D01*
X180700000Y-77250000D02*
X180700000Y-77690000D01*
X179980000Y-74740000D02*
X179980000Y-75150000D01*
X179980000Y-77250000D02*
X179980000Y-77690000D01*
X178160000Y-74740000D02*
X178160000Y-75150000D01*
X178160000Y-77250000D02*
X178160000Y-77690000D01*
X177440000Y-74740000D02*
X177440000Y-75150000D01*
X177440000Y-77250000D02*
X177440000Y-77690000D01*
X175620000Y-74740000D02*
X175620000Y-75150000D01*
X175620000Y-77250000D02*
X175620000Y-77690000D01*
X174900000Y-74740000D02*
X174900000Y-75150000D01*
X174900000Y-77250000D02*
X174900000Y-77690000D01*
X173080000Y-74740000D02*
X173080000Y-75150000D01*
X173080000Y-77250000D02*
X173080000Y-77690000D01*
X172360000Y-74740000D02*
X172360000Y-75150000D01*
X172360000Y-77250000D02*
X172360000Y-77690000D01*
X170540000Y-74740000D02*
X170540000Y-75150000D01*
X170540000Y-77250000D02*
X170540000Y-77690000D01*
X169820000Y-74740000D02*
X169820000Y-75150000D01*
X169820000Y-77250000D02*
X169820000Y-77690000D01*
X168000000Y-74740000D02*
X168000000Y-75150000D01*
X168000000Y-77250000D02*
X168000000Y-77690000D01*
X167280000Y-74740000D02*
X167280000Y-75150000D01*
X167280000Y-77250000D02*
X167280000Y-77690000D01*
X165460000Y-74740000D02*
X165460000Y-75150000D01*
X165460000Y-77250000D02*
X165460000Y-77690000D01*
X164740000Y-74740000D02*
X164740000Y-75150000D01*
X164740000Y-77250000D02*
X164740000Y-77690000D01*
X162920000Y-74740000D02*
X162920000Y-75150000D01*
X162920000Y-77250000D02*
X162920000Y-77690000D01*
X162200000Y-74740000D02*
X162200000Y-75150000D01*
X162200000Y-77250000D02*
X162200000Y-77690000D01*
X184150000Y-66110000D02*
X184150000Y-74740000D01*
X181610000Y-66110000D02*
X181610000Y-74740000D01*
X179070000Y-66110000D02*
X179070000Y-74740000D01*
X176530000Y-66110000D02*
X176530000Y-74740000D01*
X173990000Y-66110000D02*
X173990000Y-74740000D01*
X171450000Y-66110000D02*
X171450000Y-74740000D01*
X168910000Y-66110000D02*
X168910000Y-74740000D01*
X166370000Y-66110000D02*
X166370000Y-74740000D01*
X163830000Y-66110000D02*
X163830000Y-74740000D01*
X186750000Y-66110000D02*
X186750000Y-74740000D01*
X186750000Y-74740000D02*
X161230000Y-74740000D01*
X161230000Y-66110000D02*
X161230000Y-74740000D01*
X186750000Y-66110000D02*
X161230000Y-66110000D01*
X186750000Y-79850000D02*
X185420000Y-79850000D01*
X186750000Y-78740000D02*
X186750000Y-79850000D01*
D11*
X187642380Y-73423333D02*
X188356666Y-73423333D01*
X188499523Y-73470952D01*
X188594761Y-73566190D01*
X188642380Y-73709047D01*
X188642380Y-73804285D01*
X187737619Y-72994761D02*
X187690000Y-72947142D01*
X187642380Y-72851904D01*
X187642380Y-72613809D01*
X187690000Y-72518571D01*
X187737619Y-72470952D01*
X187832857Y-72423333D01*
X187928095Y-72423333D01*
X188070952Y-72470952D01*
X188642380Y-73042380D01*
X188642380Y-72423333D01*
M02*
