G04 #@! TF.GenerationSoftware,KiCad,Pcbnew,5.99.0-unknown-270aaec~100~ubuntu19.10.1*
G04 #@! TF.CreationDate,2020-01-16T19:11:27+01:00*
G04 #@! TF.ProjectId,tc2050-arm2010,74633230-3530-42d6-9172-6d323031302e,rev?*
G04 #@! TF.SameCoordinates,Original*
G04 #@! TF.FileFunction,Legend,Bot*
G04 #@! TF.FilePolarity,Positive*
%FSLAX46Y46*%
G04 Gerber Fmt 4.6, Leading zero omitted, Abs format (unit mm)*
G04 Created by KiCad (PCBNEW 5.99.0-unknown-270aaec~100~ubuntu19.10.1) date 2020-01-16 19:11:27*
%MOMM*%
%LPD*%
G04 APERTURE LIST*
%ADD10C,0.300000*%
%ADD11C,0.120000*%
%ADD12C,0.150000*%
G04 APERTURE END LIST*
D10*
X166262857Y-85748571D02*
X166262857Y-84605714D01*
X165691428Y-85177142D02*
X166834285Y-85177142D01*
X167191428Y-83177142D02*
X167191428Y-83891428D01*
X166477142Y-83962857D01*
X166548571Y-83891428D01*
X166620000Y-83748571D01*
X166620000Y-83391428D01*
X166548571Y-83248571D01*
X166477142Y-83177142D01*
X166334285Y-83105714D01*
X165977142Y-83105714D01*
X165834285Y-83177142D01*
X165762857Y-83248571D01*
X165691428Y-83391428D01*
X165691428Y-83748571D01*
X165762857Y-83891428D01*
X165834285Y-83962857D01*
X167191428Y-82677142D02*
X165691428Y-82177142D01*
X167191428Y-81677142D01*
X169660000Y-84962857D02*
X169731428Y-85105714D01*
X169731428Y-85320000D01*
X169660000Y-85534285D01*
X169517142Y-85677142D01*
X169374285Y-85748571D01*
X169088571Y-85820000D01*
X168874285Y-85820000D01*
X168588571Y-85748571D01*
X168445714Y-85677142D01*
X168302857Y-85534285D01*
X168231428Y-85320000D01*
X168231428Y-85177142D01*
X168302857Y-84962857D01*
X168374285Y-84891428D01*
X168874285Y-84891428D01*
X168874285Y-85177142D01*
X168231428Y-84248571D02*
X169731428Y-84248571D01*
X168231428Y-83391428D01*
X169731428Y-83391428D01*
X168231428Y-82677142D02*
X169731428Y-82677142D01*
X169731428Y-82320000D01*
X169660000Y-82105714D01*
X169517142Y-81962857D01*
X169374285Y-81891428D01*
X169088571Y-81820000D01*
X168874285Y-81820000D01*
X168588571Y-81891428D01*
X168445714Y-81962857D01*
X168302857Y-82105714D01*
X168231428Y-82320000D01*
X168231428Y-82677142D01*
X174811428Y-86284285D02*
X174811428Y-85427142D01*
X173311428Y-85855714D02*
X174811428Y-85855714D01*
X173311428Y-84070000D02*
X174025714Y-84570000D01*
X173311428Y-84927142D02*
X174811428Y-84927142D01*
X174811428Y-84355714D01*
X174740000Y-84212857D01*
X174668571Y-84141428D01*
X174525714Y-84070000D01*
X174311428Y-84070000D01*
X174168571Y-84141428D01*
X174097142Y-84212857D01*
X174025714Y-84355714D01*
X174025714Y-84927142D01*
X173382857Y-83498571D02*
X173311428Y-83284285D01*
X173311428Y-82927142D01*
X173382857Y-82784285D01*
X173454285Y-82712857D01*
X173597142Y-82641428D01*
X173740000Y-82641428D01*
X173882857Y-82712857D01*
X173954285Y-82784285D01*
X174025714Y-82927142D01*
X174097142Y-83212857D01*
X174168571Y-83355714D01*
X174240000Y-83427142D01*
X174382857Y-83498571D01*
X174525714Y-83498571D01*
X174668571Y-83427142D01*
X174740000Y-83355714D01*
X174811428Y-83212857D01*
X174811428Y-82855714D01*
X174740000Y-82641428D01*
X174811428Y-82212857D02*
X174811428Y-81355714D01*
X173311428Y-81784285D02*
X174811428Y-81784285D01*
D11*
X173290000Y-86630000D02*
G75*
G03*
X172590000Y-87330000I0J-700000D01*
G01*
X172590000Y-87930000D02*
G75*
G03*
X173290000Y-88630000I700000J0D01*
G01*
X174690000Y-88630000D02*
G75*
G03*
X175390000Y-87930000I0J700000D01*
G01*
X175390000Y-87330000D02*
G75*
G03*
X174690000Y-86630000I-700000J0D01*
G01*
X175390000Y-87930000D02*
X175390000Y-87330000D01*
X173290000Y-88630000D02*
X174690000Y-88630000D01*
X172590000Y-87330000D02*
X172590000Y-87930000D01*
X174690000Y-86630000D02*
X173290000Y-86630000D01*
X168870000Y-88830000D02*
X168570000Y-89130000D01*
X169170000Y-89130000D02*
X168570000Y-89130000D01*
X168870000Y-88830000D02*
X169170000Y-89130000D01*
X169720000Y-87930000D02*
X169720000Y-87330000D01*
X166270000Y-88630000D02*
X169070000Y-88630000D01*
X165620000Y-87330000D02*
X165620000Y-87930000D01*
X169070000Y-86630000D02*
X166270000Y-86630000D01*
X166320000Y-86630000D02*
G75*
G03*
X165620000Y-87330000I0J-700000D01*
G01*
X165620000Y-87930000D02*
G75*
G03*
X166320000Y-88630000I700000J0D01*
G01*
X169020000Y-88630000D02*
G75*
G03*
X169720000Y-87930000I0J700000D01*
G01*
X169720000Y-87330000D02*
G75*
G03*
X169020000Y-86630000I-700000J0D01*
G01*
X180280000Y-105340000D02*
X180280000Y-96710000D01*
X180161905Y-105340000D02*
X180161905Y-96710000D01*
X180043810Y-105340000D02*
X180043810Y-96710000D01*
X179925715Y-105340000D02*
X179925715Y-96710000D01*
X179807620Y-105340000D02*
X179807620Y-96710000D01*
X179689525Y-105340000D02*
X179689525Y-96710000D01*
X179571430Y-105340000D02*
X179571430Y-96710000D01*
X179453335Y-105340000D02*
X179453335Y-96710000D01*
X179335240Y-105340000D02*
X179335240Y-96710000D01*
X179217145Y-105340000D02*
X179217145Y-96710000D01*
X179099050Y-105340000D02*
X179099050Y-96710000D01*
X178980955Y-105340000D02*
X178980955Y-96710000D01*
X178862860Y-105340000D02*
X178862860Y-96710000D01*
X178744765Y-105340000D02*
X178744765Y-96710000D01*
X178626670Y-105340000D02*
X178626670Y-96710000D01*
X178508575Y-105340000D02*
X178508575Y-96710000D01*
X178390480Y-105340000D02*
X178390480Y-96710000D01*
X178272385Y-105340000D02*
X178272385Y-96710000D01*
X178154290Y-105340000D02*
X178154290Y-96710000D01*
X178036195Y-105340000D02*
X178036195Y-96710000D01*
X177918100Y-105340000D02*
X177918100Y-96710000D01*
X179430000Y-96710000D02*
X179430000Y-96300000D01*
X179430000Y-94200000D02*
X179430000Y-93820000D01*
X178710000Y-96710000D02*
X178710000Y-96300000D01*
X178710000Y-94200000D02*
X178710000Y-93820000D01*
X176890000Y-96710000D02*
X176890000Y-96300000D01*
X176890000Y-94200000D02*
X176890000Y-93760000D01*
X176170000Y-96710000D02*
X176170000Y-96300000D01*
X176170000Y-94200000D02*
X176170000Y-93760000D01*
X174350000Y-96710000D02*
X174350000Y-96300000D01*
X174350000Y-94200000D02*
X174350000Y-93760000D01*
X173630000Y-96710000D02*
X173630000Y-96300000D01*
X173630000Y-94200000D02*
X173630000Y-93760000D01*
X171810000Y-96710000D02*
X171810000Y-96300000D01*
X171810000Y-94200000D02*
X171810000Y-93760000D01*
X171090000Y-96710000D02*
X171090000Y-96300000D01*
X171090000Y-94200000D02*
X171090000Y-93760000D01*
X169270000Y-96710000D02*
X169270000Y-96300000D01*
X169270000Y-94200000D02*
X169270000Y-93760000D01*
X168550000Y-96710000D02*
X168550000Y-96300000D01*
X168550000Y-94200000D02*
X168550000Y-93760000D01*
X177800000Y-105340000D02*
X177800000Y-96710000D01*
X175260000Y-105340000D02*
X175260000Y-96710000D01*
X172720000Y-105340000D02*
X172720000Y-96710000D01*
X170180000Y-105340000D02*
X170180000Y-96710000D01*
X180400000Y-105340000D02*
X180400000Y-96710000D01*
X180400000Y-96710000D02*
X167580000Y-96710000D01*
X167580000Y-105340000D02*
X167580000Y-96710000D01*
X180400000Y-105340000D02*
X167580000Y-105340000D01*
X180400000Y-91600000D02*
X179070000Y-91600000D01*
X180400000Y-92710000D02*
X180400000Y-91600000D01*
D12*
X181292380Y-98026666D02*
X182006666Y-98026666D01*
X182149523Y-97979047D01*
X182244761Y-97883809D01*
X182292380Y-97740952D01*
X182292380Y-97645714D01*
X182292380Y-99026666D02*
X182292380Y-98455238D01*
X182292380Y-98740952D02*
X181292380Y-98740952D01*
X181435238Y-98645714D01*
X181530476Y-98550476D01*
X181578095Y-98455238D01*
M02*
