G04 #@! TF.GenerationSoftware,KiCad,Pcbnew,5.99.0-unknown-c173ea14b~104~ubuntu20.04.1*
G04 #@! TF.CreationDate,2020-11-05T16:19:04+01:00*
G04 #@! TF.ProjectId,tc2050-arm2010,74633230-3530-42d6-9172-6d323031302e,rev?*
G04 #@! TF.SameCoordinates,Original*
G04 #@! TF.FileFunction,Profile,NP*
%FSLAX46Y46*%
G04 Gerber Fmt 4.6, Leading zero omitted, Abs format (unit mm)*
G04 Created by KiCad (PCBNEW 5.99.0-unknown-c173ea14b~104~ubuntu20.04.1) date 2020-11-05 16:19:04*
%MOMM*%
%LPD*%
G01*
G04 APERTURE LIST*
G04 #@! TA.AperFunction,Profile*
%ADD10C,0.100000*%
G04 #@! TD*
G04 APERTURE END LIST*
D10*
X187910000Y-124140000D02*
X168910000Y-124140000D01*
X167910000Y-77140000D02*
X167910000Y-107390000D01*
X168910000Y-109140000D02*
G75*
G03*
X168910000Y-108390000I1871J375000D01*
G01*
X177160000Y-109140000D02*
G75*
G03*
X177160000Y-108390000I23483J375000D01*
G01*
X167910000Y-110140000D02*
X167910000Y-123140000D01*
X173010000Y-109140000D02*
G75*
G03*
X173010000Y-108390000I21276J375000D01*
G01*
X164910000Y-67140000D02*
X164910000Y-72640000D01*
X174858124Y-108390004D02*
G75*
G03*
X174861876Y-109140000I1876J-374998D01*
G01*
X184410000Y-108390000D02*
X185911878Y-108390000D01*
X188910000Y-107390000D02*
X188910000Y-77140000D01*
X168910000Y-109140000D02*
G75*
G03*
X167910000Y-110140000I0J-1000000D01*
G01*
X182660000Y-109140000D02*
G75*
G03*
X182660000Y-108390000I-1883J375000D01*
G01*
X190910000Y-66140000D02*
X165910000Y-66140000D01*
X170810000Y-108390000D02*
X173006248Y-108390002D01*
X174860000Y-108390000D02*
X177158124Y-108390002D01*
X184411883Y-109140000D02*
X185910000Y-109139998D01*
X179910000Y-108389998D02*
G75*
G03*
X179908124Y-109140002I-3756J-374995D01*
G01*
X187910000Y-124140000D02*
G75*
G03*
X188910000Y-123140000I0J1000000D01*
G01*
X188910000Y-107390000D02*
G75*
G02*
X187910000Y-108390000I-1000000J0D01*
G01*
X191910000Y-72640000D02*
X188910000Y-77140000D01*
X179908124Y-108390002D02*
X182656248Y-108390004D01*
X165910000Y-66140000D02*
G75*
G03*
X164910000Y-67140000I0J-1000000D01*
G01*
X179908124Y-109140002D02*
X182656248Y-109140004D01*
X185911878Y-109140000D02*
G75*
G03*
X185911878Y-108390000I-1878J375000D01*
G01*
X170810000Y-108389998D02*
G75*
G03*
X170835712Y-109140000I27J-375441D01*
G01*
X184411883Y-108390000D02*
G75*
G03*
X184411883Y-109140000I-1883J-375000D01*
G01*
X174861876Y-109140000D02*
X177158124Y-109140002D01*
X191910000Y-67140000D02*
X191910000Y-72640000D01*
X191910000Y-67140000D02*
G75*
G03*
X190910000Y-66140000I-1000000J0D01*
G01*
X187910000Y-109140000D02*
G75*
G02*
X188910000Y-110140000I0J-1000000D01*
G01*
X167910000Y-123140000D02*
G75*
G03*
X168910000Y-124140000I1000000J0D01*
G01*
X188910000Y-110140000D02*
X188910000Y-123140000D01*
X170835712Y-109140000D02*
X173008124Y-109139998D01*
X167910000Y-107390000D02*
G75*
G03*
X168910000Y-108390000I1000000J0D01*
G01*
X164910000Y-72640000D02*
X167910000Y-77140000D01*
X187910000Y-108390000D02*
G75*
G03*
X187910000Y-109140000I1871J-375000D01*
G01*
M02*
