G04 #@! TF.GenerationSoftware,KiCad,Pcbnew,5.99.0-unknown-270aaec~100~ubuntu19.10.1*
G04 #@! TF.CreationDate,2020-01-16T19:11:27+01:00*
G04 #@! TF.ProjectId,tc2050-arm2010,74633230-3530-42d6-9172-6d323031302e,rev?*
G04 #@! TF.SameCoordinates,Original*
G04 #@! TF.FileFunction,Copper,L2,Bot*
G04 #@! TF.FilePolarity,Positive*
%FSLAX46Y46*%
G04 Gerber Fmt 4.6, Leading zero omitted, Abs format (unit mm)*
G04 Created by KiCad (PCBNEW 5.99.0-unknown-270aaec~100~ubuntu19.10.1) date 2020-01-16 19:11:27*
%MOMM*%
%LPD*%
G04 APERTURE LIST*
%ADD10R,1.000000X1.500000*%
%ADD11O,1.700000X1.700000*%
%ADD12R,1.700000X1.700000*%
%ADD13C,0.250000*%
G04 APERTURE END LIST*
G04 #@! TA.AperFunction,SMDPad,CuDef*
G36*
X173194842Y-88363835D02*
G01*
X173064880Y-88303647D01*
X172957035Y-88209402D01*
X172879976Y-88088675D01*
X172839898Y-87951174D01*
X172840830Y-87879999D01*
X172840000Y-87879999D01*
X172840000Y-87451525D01*
X172839898Y-87451175D01*
X172840000Y-87443385D01*
X172840001Y-87380000D01*
X172840831Y-87380000D01*
X172841934Y-87295758D01*
X172885597Y-87159354D01*
X172965790Y-87040686D01*
X173076066Y-86949296D01*
X173207558Y-86892531D01*
X173349697Y-86874952D01*
X173380693Y-86880000D01*
X173840000Y-86880001D01*
X173840000Y-87311584D01*
X173840934Y-87314941D01*
X173840000Y-87386279D01*
X173840000Y-87811583D01*
X173840934Y-87814940D01*
X173839999Y-87886278D01*
X173839999Y-88380000D01*
X173374159Y-88380000D01*
X173336473Y-88385129D01*
X173194842Y-88363835D01*
G37*
G04 #@! TD.AperFunction*
G04 #@! TA.AperFunction,SMDPad,CuDef*
G36*
X174602359Y-88380000D02*
G01*
X174140000Y-88379999D01*
X174140000Y-87951524D01*
X174139898Y-87951174D01*
X174140000Y-87943384D01*
X174140000Y-87451525D01*
X174139898Y-87451175D01*
X174140000Y-87443385D01*
X174140001Y-86880000D01*
X174608881Y-86880000D01*
X174649697Y-86874952D01*
X174791058Y-86897974D01*
X174920275Y-86959746D01*
X175026960Y-87055302D01*
X175102539Y-87176961D01*
X175140934Y-87314941D01*
X175140000Y-87386279D01*
X175140000Y-87811583D01*
X175140934Y-87814940D01*
X175139058Y-87958151D01*
X175097064Y-88095079D01*
X175018327Y-88214717D01*
X174909177Y-88307447D01*
X174778387Y-88365815D01*
X174636473Y-88385129D01*
X174602359Y-88380000D01*
G37*
G04 #@! TD.AperFunction*
D10*
X167670000Y-87630000D03*
G04 #@! TA.AperFunction,SMDPad,CuDef*
G36*
X166224842Y-88363835D02*
G01*
X166094880Y-88303647D01*
X165987035Y-88209402D01*
X165909976Y-88088675D01*
X165869898Y-87951174D01*
X165870830Y-87879999D01*
X165870000Y-87879999D01*
X165870000Y-87451525D01*
X165869898Y-87451175D01*
X165870000Y-87443385D01*
X165870001Y-87380000D01*
X165870831Y-87380000D01*
X165871934Y-87295758D01*
X165915597Y-87159354D01*
X165995790Y-87040686D01*
X166106066Y-86949296D01*
X166237558Y-86892531D01*
X166379697Y-86874952D01*
X166410693Y-86880000D01*
X166920000Y-86880001D01*
X166919999Y-88380000D01*
X166404159Y-88380000D01*
X166366473Y-88385129D01*
X166224842Y-88363835D01*
G37*
G04 #@! TD.AperFunction*
G04 #@! TA.AperFunction,SMDPad,CuDef*
G36*
X168932359Y-88380000D02*
G01*
X168420000Y-88379999D01*
X168420001Y-86880000D01*
X168938881Y-86880000D01*
X168979697Y-86874952D01*
X169121058Y-86897974D01*
X169250275Y-86959746D01*
X169356960Y-87055302D01*
X169432539Y-87176961D01*
X169470934Y-87314941D01*
X169470000Y-87386279D01*
X169470000Y-87811583D01*
X169470934Y-87814940D01*
X169469058Y-87958151D01*
X169427064Y-88095079D01*
X169348327Y-88214717D01*
X169239177Y-88307447D01*
X169108387Y-88365815D01*
X168966473Y-88385129D01*
X168932359Y-88380000D01*
G37*
G04 #@! TD.AperFunction*
D11*
X162560000Y-76200000D03*
X162560000Y-78740000D03*
X165100000Y-76200000D03*
X165100000Y-78740000D03*
X167640000Y-76200000D03*
X167640000Y-78740000D03*
X170180000Y-76200000D03*
X170180000Y-78740000D03*
X172720000Y-76200000D03*
X172720000Y-78740000D03*
X175260000Y-76200000D03*
X175260000Y-78740000D03*
X177800000Y-76200000D03*
X177800000Y-78740000D03*
X180340000Y-76200000D03*
X180340000Y-78740000D03*
X182880000Y-76200000D03*
X182880000Y-78740000D03*
X185420000Y-76200000D03*
D12*
X185420000Y-78740000D03*
D11*
X168910000Y-95250000D03*
X168910000Y-92710000D03*
X171450000Y-95250000D03*
X171450000Y-92710000D03*
X173990000Y-95250000D03*
X173990000Y-92710000D03*
X176530000Y-95250000D03*
X176530000Y-92710000D03*
X179070000Y-95250000D03*
D12*
X179070000Y-92710000D03*
D13*
X174695999Y-77564999D02*
X181704999Y-77564999D01*
X173990000Y-79209002D02*
X173990000Y-78270998D01*
X174640000Y-87630000D02*
X174640000Y-79859002D01*
X173990000Y-78270998D02*
X174695999Y-77564999D01*
X174640000Y-79859002D02*
X173990000Y-79209002D01*
X181704999Y-77564999D02*
X182880000Y-78740000D01*
X166370000Y-87630000D02*
X166370000Y-82550000D01*
X168580500Y-81609500D02*
X166275001Y-79304001D01*
X168970000Y-87630000D02*
X168970000Y-81999000D01*
X168910000Y-81939000D02*
X168580500Y-81609500D01*
X168970000Y-81999000D02*
X168580500Y-81609500D01*
X167670000Y-90773590D02*
X167670000Y-87630000D01*
X173340000Y-87630000D02*
X168910000Y-92060000D01*
X168910000Y-92060000D02*
X168910000Y-92710000D01*
X167640000Y-91440000D02*
X171450000Y-87630000D01*
X171450000Y-87630000D02*
X171450000Y-82550000D01*
X176530000Y-90170000D02*
X176530000Y-80010000D01*
X176530000Y-80010000D02*
X175260000Y-78740000D01*
X179070000Y-95250000D02*
X177800000Y-93980000D01*
X177800000Y-93980000D02*
X177800000Y-78740000D01*
X179070000Y-86360000D02*
X180340000Y-85090000D01*
X179070000Y-92710000D02*
X179070000Y-86360000D01*
X166370000Y-82550000D02*
X162560000Y-78740000D01*
X166275001Y-77375001D02*
X165949999Y-77049999D01*
X166275001Y-79304001D02*
X166275001Y-77375001D01*
X165949999Y-77049999D02*
X165100000Y-76200000D01*
X167189990Y-95268992D02*
X168345999Y-96425001D01*
X167189990Y-91253600D02*
X167189990Y-95268992D01*
X168345999Y-96425001D02*
X172014001Y-96425001D01*
X167670000Y-90773590D02*
X167189990Y-91253600D01*
X172014001Y-96425001D02*
X172720000Y-95719002D01*
X172720000Y-95719002D02*
X172720000Y-93980000D01*
X172720000Y-93980000D02*
X173990000Y-92710000D01*
X171450000Y-82550000D02*
X167640000Y-78740000D01*
X167640000Y-93980000D02*
X167640000Y-91440000D01*
X168910000Y-95250000D02*
X167640000Y-93980000D01*
X175354999Y-94074999D02*
X175354999Y-91345001D01*
X176530000Y-95250000D02*
X175354999Y-94074999D01*
X175354999Y-91345001D02*
X176530000Y-90170000D01*
X185420000Y-80010000D02*
X179070000Y-86360000D01*
X185420000Y-78740000D02*
X185420000Y-80010000D01*
M02*
