G04 #@! TF.GenerationSoftware,KiCad,Pcbnew,5.99.0-unknown-9a4f92dfd~102~ubuntu20.04.1*
G04 #@! TF.CreationDate,2020-08-30T02:03:19+02:00*
G04 #@! TF.ProjectId,tc2050-arm2010,74633230-3530-42d6-9172-6d323031302e,rev?*
G04 #@! TF.SameCoordinates,Original*
G04 #@! TF.FileFunction,Copper,L2,Bot*
G04 #@! TF.FilePolarity,Positive*
%FSLAX46Y46*%
G04 Gerber Fmt 4.6, Leading zero omitted, Abs format (unit mm)*
G04 Created by KiCad (PCBNEW 5.99.0-unknown-9a4f92dfd~102~ubuntu20.04.1) date 2020-08-30 02:03:19*
%MOMM*%
%LPD*%
G01*
G04 APERTURE LIST*
G04 #@! TA.AperFunction,SMDPad,CuDef*
%ADD10R,0.660000X1.350000*%
G04 #@! TD*
G04 #@! TA.AperFunction,ComponentPad*
%ADD11R,1.700000X1.700000*%
G04 #@! TD*
G04 #@! TA.AperFunction,ComponentPad*
%ADD12O,1.700000X1.700000*%
G04 #@! TD*
G04 #@! TA.AperFunction,ComponentPad*
%ADD13C,1.700000*%
G04 #@! TD*
G04 #@! TA.AperFunction,ViaPad*
%ADD14C,0.800000*%
G04 #@! TD*
G04 #@! TA.AperFunction,Conductor*
%ADD15C,0.250000*%
G04 #@! TD*
G04 APERTURE END LIST*
D10*
X180950000Y-117440000D03*
X180950000Y-112840000D03*
X179680000Y-117440000D03*
X179680000Y-112840000D03*
X178410000Y-117440000D03*
X178410000Y-112840000D03*
X177140000Y-117440000D03*
X177140000Y-112840000D03*
X175870000Y-117440000D03*
X175870000Y-112840000D03*
D11*
X189920000Y-70590000D03*
D12*
X189920000Y-68050000D03*
X187380000Y-70590000D03*
X187380000Y-68050000D03*
X184840000Y-70590000D03*
X184840000Y-68050000D03*
X182300000Y-70590000D03*
X182300000Y-68050000D03*
X179760000Y-70590000D03*
X179760000Y-68050000D03*
X177220000Y-70590000D03*
X177220000Y-68050000D03*
X174680000Y-70590000D03*
X174680000Y-68050000D03*
X172140000Y-70590000D03*
X172140000Y-68050000D03*
X169600000Y-70590000D03*
X169600000Y-68050000D03*
X167060000Y-70590000D03*
X167060000Y-68050000D03*
G04 #@! TA.AperFunction,ComponentPad*
G36*
G01*
X174010000Y-84490000D02*
X172810000Y-84490000D01*
G75*
G02*
X172560000Y-84240000I0J250000D01*
G01*
X172560000Y-83040000D01*
G75*
G02*
X172810000Y-82790000I250000J0D01*
G01*
X174010000Y-82790000D01*
G75*
G02*
X174260000Y-83040000I0J-250000D01*
G01*
X174260000Y-84240000D01*
G75*
G02*
X174010000Y-84490000I-250000J0D01*
G01*
G37*
G04 #@! TD.AperFunction*
D13*
X173410000Y-81100000D03*
X175950000Y-83640000D03*
X175950000Y-81100000D03*
X178490000Y-83640000D03*
X178490000Y-81100000D03*
X181030000Y-83640000D03*
X181030000Y-81100000D03*
X183570000Y-83640000D03*
X183570000Y-81100000D03*
G04 #@! TA.AperFunction,ComponentPad*
G36*
G01*
X176260000Y-95590000D02*
X175060000Y-95590000D01*
G75*
G02*
X174810000Y-95340000I0J250000D01*
G01*
X174810000Y-94140000D01*
G75*
G02*
X175060000Y-93890000I250000J0D01*
G01*
X176260000Y-93890000D01*
G75*
G02*
X176510000Y-94140000I0J-250000D01*
G01*
X176510000Y-95340000D01*
G75*
G02*
X176260000Y-95590000I-250000J0D01*
G01*
G37*
G04 #@! TD.AperFunction*
X175660000Y-92200000D03*
X178200000Y-94740000D03*
X178200000Y-92200000D03*
X180740000Y-94740000D03*
X180740000Y-92200000D03*
D11*
X170910000Y-121540000D03*
D12*
X173450000Y-121540000D03*
X175990000Y-121540000D03*
X178530000Y-121540000D03*
X181070000Y-121540000D03*
X183610000Y-121540000D03*
X186150000Y-121540000D03*
D14*
X172910000Y-89140000D03*
X182410000Y-98640000D03*
X177660000Y-86390000D03*
X175660000Y-90140000D03*
X175660000Y-85540000D03*
X182410000Y-102390000D03*
X178910000Y-98640000D03*
X182660000Y-92390000D03*
X180910000Y-90390000D03*
X180910000Y-87390000D03*
X182660000Y-85390000D03*
X169660000Y-72640000D03*
X173410000Y-79140000D03*
X186160000Y-72890000D03*
X184160000Y-76640000D03*
X183910000Y-79140000D03*
X181410000Y-79140000D03*
X181410000Y-77140000D03*
X182910000Y-74890000D03*
X183410000Y-72890000D03*
X180840011Y-74640000D03*
X177910000Y-79140000D03*
X176660000Y-75890000D03*
X176910000Y-107640000D03*
X174910000Y-107640000D03*
X180160000Y-107390000D03*
X183160000Y-107390000D03*
X185410000Y-107390000D03*
X185410000Y-107390000D03*
X180160000Y-110140000D03*
X189310000Y-74740000D03*
X190710000Y-72540000D03*
X187910000Y-76860000D03*
X187910000Y-79400000D03*
X187910000Y-81940000D03*
X187910000Y-84480000D03*
X187910000Y-87020000D03*
X187910000Y-89560000D03*
X187910000Y-92100000D03*
X187910000Y-94640000D03*
X187910000Y-97180000D03*
X187910000Y-99720000D03*
X187910000Y-102260000D03*
X187910000Y-104800000D03*
X187910000Y-107340000D03*
X171910000Y-107390000D03*
X174510000Y-105340000D03*
X173910000Y-101140000D03*
X174910000Y-96640000D03*
X172910000Y-93140000D03*
X172910000Y-85540000D03*
X173110000Y-73540000D03*
X167310000Y-74540000D03*
X165910000Y-72340000D03*
X168910000Y-76860000D03*
X168910000Y-79400000D03*
X168910000Y-81940000D03*
X168910000Y-84480000D03*
X168910000Y-87020000D03*
X168910000Y-89560000D03*
X168910000Y-92100000D03*
X168910000Y-94640000D03*
X168910000Y-97180000D03*
X168910000Y-99720000D03*
X168910000Y-102260000D03*
X168910000Y-104800000D03*
X168910000Y-107340000D03*
X176910000Y-74015000D03*
X175910000Y-73540000D03*
X177510000Y-118940000D03*
X176544999Y-115105001D03*
X171510000Y-116740000D03*
X180910000Y-102390000D03*
X180950000Y-116237001D03*
X179660000Y-102390000D03*
X178410000Y-116390000D03*
X177160000Y-102390000D03*
X175910000Y-102390000D03*
X187910000Y-123140000D03*
X187910000Y-120540000D03*
X187910000Y-112740000D03*
X185535000Y-123140000D03*
X173710000Y-112540000D03*
X183160000Y-110140000D03*
X173710000Y-114540000D03*
X187910000Y-110140000D03*
X171910000Y-110140000D03*
X183160000Y-123140000D03*
X180785000Y-123140000D03*
X174910000Y-110140000D03*
X178410000Y-123140000D03*
X187910000Y-117940000D03*
X168910000Y-120540000D03*
X168910000Y-112740000D03*
X171285000Y-123140000D03*
X182310000Y-117340000D03*
X187910000Y-115340000D03*
X168910000Y-123140000D03*
X172710000Y-119340000D03*
X168910000Y-110140000D03*
X168910000Y-117940000D03*
X177910000Y-114540000D03*
X178410000Y-111640000D03*
X185535000Y-110140000D03*
X183310000Y-112940000D03*
X176035000Y-123140000D03*
X168910000Y-115340000D03*
X173660000Y-123140000D03*
X176910000Y-111564998D03*
X176507652Y-114042348D03*
D15*
X178200000Y-94740000D02*
X177475009Y-95464991D01*
X177475009Y-95464991D02*
X177475009Y-99568599D01*
X177475009Y-99568599D02*
X179571409Y-101664999D01*
X180184999Y-101664999D02*
X180910000Y-102390000D01*
X179571409Y-101664999D02*
X180184999Y-101664999D01*
X179660000Y-102390000D02*
X177024999Y-99754999D01*
X177024999Y-99754999D02*
X177024999Y-91635999D01*
X177910000Y-87862592D02*
X179710000Y-86062592D01*
X177024999Y-91635999D02*
X177910000Y-90750998D01*
X177910000Y-90750998D02*
X177910000Y-87862592D01*
X179710000Y-86062592D02*
X179710000Y-82420000D01*
X179710000Y-82420000D02*
X181030000Y-81100000D01*
X176910000Y-74015000D02*
X177035000Y-74015000D01*
X177035000Y-74015000D02*
X179284999Y-71765001D01*
X179284999Y-71765001D02*
X181124999Y-71765001D01*
X181124999Y-71765001D02*
X182300000Y-70590000D01*
X173410000Y-83640000D02*
X174585001Y-82464999D01*
X174585001Y-82464999D02*
X179028591Y-82464999D01*
X182784999Y-71765001D02*
X188744999Y-71765001D01*
X179028591Y-82464999D02*
X179854999Y-81638591D01*
X179854999Y-81638591D02*
X179854999Y-76698014D01*
X179854999Y-76698014D02*
X181660000Y-74893013D01*
X181660000Y-74893013D02*
X181660000Y-72890000D01*
X181660000Y-72890000D02*
X182784999Y-71765001D01*
X188744999Y-71765001D02*
X189920000Y-70590000D01*
X180840011Y-74640000D02*
X177358002Y-74640000D01*
X177258001Y-74740001D02*
X176036999Y-74740001D01*
X177358002Y-74640000D02*
X177258001Y-74740001D01*
X176036999Y-74740001D02*
X172140000Y-70843002D01*
X172140000Y-70843002D02*
X172140000Y-70590000D01*
X185410000Y-107390000D02*
X184708937Y-107390000D01*
X184708937Y-107390000D02*
X183652620Y-108446317D01*
X183652620Y-108446317D02*
X183652620Y-109090009D01*
X183652620Y-109090009D02*
X184702611Y-110140000D01*
X184702611Y-110140000D02*
X185535000Y-110140000D01*
X171910000Y-107390000D02*
X171113389Y-107390000D01*
X170058465Y-108444924D02*
X170058465Y-109089150D01*
X171113389Y-107390000D02*
X170058465Y-108444924D01*
X170058465Y-109089150D02*
X171109315Y-110140000D01*
X171109315Y-110140000D02*
X171910000Y-110140000D01*
X174910000Y-107640000D02*
X174109311Y-108440689D01*
X174109311Y-108440689D02*
X174109311Y-109339311D01*
X174109311Y-109339311D02*
X174910000Y-110140000D01*
X187149351Y-109379351D02*
X187910000Y-110140000D01*
X187910000Y-107340000D02*
X187149351Y-108100649D01*
X187149351Y-108100649D02*
X187149351Y-109379351D01*
X178200000Y-94740000D02*
X179375001Y-93564999D01*
X179375001Y-91635999D02*
X178410000Y-90670998D01*
X179375001Y-93564999D02*
X179375001Y-91635999D01*
X182394999Y-84014003D02*
X182394999Y-82275001D01*
X178410000Y-90670998D02*
X178410000Y-87999002D01*
X178410000Y-87999002D02*
X182394999Y-84014003D01*
X182394999Y-82275001D02*
X183570000Y-81100000D01*
X176036998Y-74740000D02*
X172140000Y-70843002D01*
X175910000Y-73540000D02*
X177310000Y-72140000D01*
X177310000Y-72140000D02*
X178210000Y-72140000D01*
X178210000Y-72140000D02*
X179760000Y-70590000D01*
X183570000Y-83640000D02*
X183570000Y-83680000D01*
X178410000Y-112840000D02*
X178410000Y-113185000D01*
X178410000Y-113185000D02*
X179065001Y-113840001D01*
X179065001Y-113840001D02*
X180294999Y-113840001D01*
X180294999Y-113840001D02*
X180950000Y-113185000D01*
X180950000Y-113185000D02*
X180950000Y-112840000D01*
X175870000Y-117440000D02*
X175819998Y-117389998D01*
X174660000Y-113856412D02*
X174660000Y-111503590D01*
X174660000Y-111503590D02*
X175773603Y-110389987D01*
X177835001Y-109766001D02*
X177835001Y-104315001D01*
X175819998Y-117389998D02*
X175819998Y-115016410D01*
X177211015Y-110389987D02*
X177835001Y-109766001D01*
X175819998Y-115016410D02*
X174660000Y-113856412D01*
X177835001Y-104315001D02*
X175910000Y-102390000D01*
X175773603Y-110389987D02*
X177211015Y-110389987D01*
X176144999Y-114705001D02*
X175214999Y-113775001D01*
X176869999Y-115430001D02*
X176144999Y-114705001D01*
X176144999Y-114705001D02*
X176544999Y-115105001D01*
X180950000Y-116237001D02*
X180910000Y-116197001D01*
X182055010Y-111718598D02*
X181526402Y-111189990D01*
X179669402Y-111189990D02*
X179185031Y-110705619D01*
X179185031Y-104114969D02*
X180910000Y-102390000D01*
X180910000Y-116197001D02*
X180910000Y-115131991D01*
X180910000Y-115131991D02*
X182055010Y-113986981D01*
X179185031Y-110705619D02*
X179185031Y-104114969D01*
X182055010Y-113986981D02*
X182055010Y-111718598D01*
X181526402Y-111189990D02*
X179669402Y-111189990D01*
X179680000Y-117440000D02*
X179680000Y-117785000D01*
X180535000Y-118640000D02*
X183250000Y-118640000D01*
X183250000Y-118640000D02*
X186150000Y-121540000D01*
X179680000Y-117785000D02*
X180535000Y-118640000D01*
X178410000Y-117440000D02*
X178410000Y-117785000D01*
X178410000Y-117785000D02*
X179965000Y-119340000D01*
X179965000Y-119340000D02*
X181410000Y-119340000D01*
X181410000Y-119340000D02*
X183610000Y-121540000D01*
X175870000Y-118923002D02*
X175893002Y-118923002D01*
X175893002Y-118923002D02*
X178510000Y-121540000D01*
X178510000Y-121540000D02*
X178530000Y-121540000D01*
X180950000Y-117440000D02*
X180950000Y-116237001D01*
X179483002Y-111640000D02*
X178735021Y-110892019D01*
X178735021Y-110892019D02*
X178735021Y-103314979D01*
X181605001Y-113775001D02*
X181605001Y-111904999D01*
X181605001Y-111904999D02*
X181340002Y-111640000D01*
X178735021Y-103314979D02*
X179660000Y-102390000D01*
X179680000Y-117440000D02*
X179680000Y-115700002D01*
X179680000Y-115700002D02*
X181605001Y-113775001D01*
X181340002Y-111640000D02*
X179483002Y-111640000D01*
X178410000Y-116390000D02*
X178410000Y-117440000D01*
X177397415Y-110839997D02*
X178285011Y-109952401D01*
X175960003Y-110839997D02*
X177397415Y-110839997D01*
X175214999Y-111585001D02*
X175960003Y-110839997D01*
X177140000Y-117440000D02*
X177140000Y-115700002D01*
X178285011Y-109952401D02*
X178285011Y-103515011D01*
X175214999Y-113775001D02*
X175214999Y-111585001D01*
X177140000Y-115700002D02*
X176869999Y-115430001D01*
X178285011Y-103515011D02*
X177160000Y-102390000D01*
X175870000Y-117440000D02*
X175870000Y-118923002D01*
X178336998Y-121390000D02*
X178530000Y-121390000D01*
X178410000Y-111640000D02*
X178410000Y-112840000D01*
X176910000Y-111564998D02*
X176235002Y-111564998D01*
X175870000Y-113404696D02*
X176507652Y-114042348D01*
X175870000Y-112840000D02*
X175870000Y-113404696D01*
X175870000Y-111930000D02*
X175870000Y-112840000D01*
X176235002Y-111564998D02*
X175870000Y-111930000D01*
G04 #@! TA.AperFunction,Conductor*
G36*
X170000749Y-109160002D02*
G01*
X170044113Y-109207287D01*
X170056971Y-109231701D01*
X170057237Y-109232130D01*
X170058087Y-109233820D01*
X170059055Y-109235659D01*
X170059020Y-109235677D01*
X170060622Y-109238864D01*
X170060700Y-109238819D01*
X170065143Y-109246617D01*
X170103321Y-109295796D01*
X170105827Y-109299136D01*
X170142344Y-109349538D01*
X170148584Y-109355984D01*
X170148535Y-109356031D01*
X170153764Y-109360883D01*
X170154380Y-109361565D01*
X170158919Y-109365898D01*
X170248603Y-109450494D01*
X170249006Y-109450823D01*
X170250397Y-109452186D01*
X170251856Y-109453562D01*
X170251830Y-109453590D01*
X170254377Y-109456085D01*
X170254437Y-109456018D01*
X170261169Y-109461959D01*
X170313234Y-109496129D01*
X170316690Y-109498480D01*
X170367535Y-109534317D01*
X170375532Y-109538397D01*
X170375500Y-109538459D01*
X170382014Y-109541352D01*
X170382820Y-109541799D01*
X170388594Y-109544463D01*
X170500755Y-109595405D01*
X170501226Y-109595580D01*
X170502923Y-109596390D01*
X170504845Y-109597263D01*
X170504828Y-109597300D01*
X170508042Y-109598834D01*
X170508077Y-109598749D01*
X170516371Y-109602189D01*
X170576666Y-109617644D01*
X170580696Y-109618748D01*
X170640451Y-109636196D01*
X170649331Y-109637464D01*
X170649321Y-109637531D01*
X170656417Y-109638158D01*
X170657334Y-109638322D01*
X170663562Y-109638963D01*
X170786281Y-109650838D01*
X170845349Y-109648132D01*
X170851115Y-109648000D01*
X172987772Y-109647997D01*
X172996342Y-109648289D01*
X173048028Y-109651813D01*
X173048048Y-109651812D01*
X173054207Y-109651317D01*
X173158798Y-109642258D01*
X173159560Y-109642242D01*
X173163175Y-109641888D01*
X173164028Y-109641809D01*
X173164197Y-109641787D01*
X173166769Y-109641535D01*
X173233961Y-109625095D01*
X173235350Y-109624764D01*
X173302724Y-109609086D01*
X173305349Y-109608066D01*
X173305823Y-109607897D01*
X173307385Y-109607273D01*
X173308852Y-109606703D01*
X173309523Y-109606378D01*
X173313965Y-109604561D01*
X173427779Y-109557191D01*
X173428244Y-109556958D01*
X173430055Y-109556244D01*
X173431925Y-109555466D01*
X173431940Y-109555502D01*
X173435252Y-109554196D01*
X173435214Y-109554114D01*
X173443388Y-109550389D01*
X173495810Y-109516803D01*
X173499364Y-109514608D01*
X173552845Y-109482794D01*
X173559831Y-109477157D01*
X173559874Y-109477210D01*
X173565166Y-109472449D01*
X173565908Y-109471892D01*
X173570578Y-109467811D01*
X173663008Y-109386045D01*
X173663370Y-109385675D01*
X173664846Y-109384419D01*
X173666368Y-109383072D01*
X173666394Y-109383101D01*
X173669108Y-109380790D01*
X173669045Y-109380724D01*
X173675568Y-109374556D01*
X173714283Y-109325804D01*
X173716933Y-109322578D01*
X173757230Y-109275149D01*
X173762015Y-109267551D01*
X173762073Y-109267588D01*
X173765541Y-109261365D01*
X173766058Y-109260604D01*
X173769171Y-109255202D01*
X173798397Y-109203759D01*
X173849439Y-109154410D01*
X173907951Y-109140000D01*
X173980519Y-109140000D01*
X174048640Y-109160002D01*
X174084747Y-109195201D01*
X174121447Y-109249230D01*
X174123738Y-109252726D01*
X174156978Y-109305334D01*
X174162801Y-109312167D01*
X174162748Y-109312212D01*
X174167659Y-109317384D01*
X174168232Y-109318105D01*
X174172520Y-109322754D01*
X174256523Y-109412721D01*
X174256905Y-109413076D01*
X174258213Y-109414531D01*
X174259577Y-109415992D01*
X174259549Y-109416018D01*
X174261934Y-109418670D01*
X174261998Y-109418606D01*
X174268338Y-109424960D01*
X174318087Y-109462331D01*
X174321386Y-109464896D01*
X174369898Y-109503919D01*
X174377622Y-109508499D01*
X174377587Y-109508557D01*
X174383892Y-109511852D01*
X174384677Y-109512355D01*
X174390270Y-109515379D01*
X174498853Y-109573269D01*
X174499329Y-109573481D01*
X174501031Y-109574430D01*
X174502814Y-109575381D01*
X174502796Y-109575415D01*
X174505910Y-109577152D01*
X174505950Y-109577071D01*
X174514005Y-109581028D01*
X174573215Y-109600282D01*
X174577166Y-109601640D01*
X174635671Y-109622835D01*
X174644466Y-109624666D01*
X174644452Y-109624734D01*
X174651507Y-109625812D01*
X174652390Y-109626028D01*
X174658699Y-109627085D01*
X174780146Y-109646674D01*
X174814913Y-109647289D01*
X174822253Y-109647903D01*
X174822272Y-109647653D01*
X174826926Y-109647999D01*
X174853943Y-109647999D01*
X174856172Y-109648019D01*
X174925635Y-109649248D01*
X174927816Y-109648975D01*
X174943471Y-109647999D01*
X175316726Y-109648000D01*
X175384847Y-109668002D01*
X175431340Y-109721658D01*
X175441443Y-109791932D01*
X175400030Y-109860605D01*
X175403909Y-109864484D01*
X174141512Y-111126881D01*
X174123117Y-111162985D01*
X174112784Y-111179847D01*
X174088963Y-111212632D01*
X174076442Y-111251170D01*
X174068875Y-111269438D01*
X174050477Y-111305546D01*
X174044139Y-111345568D01*
X174039523Y-111364795D01*
X174027001Y-111403334D01*
X174027001Y-113956669D01*
X174039521Y-113995200D01*
X174044137Y-114014425D01*
X174050478Y-114054459D01*
X174068875Y-114090564D01*
X174076443Y-114108835D01*
X174088965Y-114147374D01*
X174112781Y-114180153D01*
X174123113Y-114197012D01*
X174141510Y-114233118D01*
X174290480Y-114382088D01*
X175150095Y-115241704D01*
X175186999Y-115330799D01*
X175186998Y-116339301D01*
X175166996Y-116407422D01*
X175151702Y-116424792D01*
X175151930Y-116424983D01*
X175144843Y-116433429D01*
X175055272Y-116588574D01*
X175024163Y-116765001D01*
X175024163Y-118114998D01*
X175093273Y-118372920D01*
X175207523Y-118509078D01*
X175237001Y-118590069D01*
X175237001Y-118863262D01*
X175235450Y-118882972D01*
X175229110Y-118923002D01*
X175260476Y-119121047D01*
X175351510Y-119299710D01*
X175493291Y-119441491D01*
X175522415Y-119456331D01*
X175554305Y-119479502D01*
X176207095Y-120132292D01*
X176244000Y-120221387D01*
X176243999Y-122874121D01*
X176369098Y-122849124D01*
X176584259Y-122766530D01*
X176782407Y-122648878D01*
X176957914Y-122499513D01*
X177105749Y-122322703D01*
X177150587Y-122245663D01*
X177202140Y-122196849D01*
X177271900Y-122183656D01*
X177337719Y-122210273D01*
X177364677Y-122239683D01*
X177459680Y-122383764D01*
X177617155Y-122552046D01*
X177800723Y-122691380D01*
X178005147Y-122797795D01*
X178224577Y-122868246D01*
X178452732Y-122900717D01*
X178683105Y-122894282D01*
X178909098Y-122849124D01*
X179124259Y-122766530D01*
X179322407Y-122648878D01*
X179497914Y-122499513D01*
X179645749Y-122322703D01*
X179690587Y-122245663D01*
X179742140Y-122196849D01*
X179811900Y-122183656D01*
X179877719Y-122210273D01*
X179904677Y-122239683D01*
X179999680Y-122383764D01*
X180157155Y-122552046D01*
X180340723Y-122691380D01*
X180545147Y-122797795D01*
X180764577Y-122868246D01*
X180992732Y-122900717D01*
X181223105Y-122894282D01*
X181449098Y-122849124D01*
X181664259Y-122766530D01*
X181862407Y-122648878D01*
X182037914Y-122499513D01*
X182185749Y-122322703D01*
X182230587Y-122245663D01*
X182282140Y-122196849D01*
X182351900Y-122183656D01*
X182417719Y-122210273D01*
X182444677Y-122239683D01*
X182539680Y-122383764D01*
X182697155Y-122552046D01*
X182880723Y-122691380D01*
X183085147Y-122797795D01*
X183304577Y-122868246D01*
X183532732Y-122900717D01*
X183763105Y-122894282D01*
X183989098Y-122849124D01*
X184204259Y-122766530D01*
X184402407Y-122648878D01*
X184577914Y-122499513D01*
X184725749Y-122322703D01*
X184770587Y-122245663D01*
X184822140Y-122196849D01*
X184891900Y-122183656D01*
X184957719Y-122210273D01*
X184984677Y-122239683D01*
X185079680Y-122383764D01*
X185237155Y-122552046D01*
X185420723Y-122691380D01*
X185625147Y-122797795D01*
X185844577Y-122868246D01*
X186072732Y-122900717D01*
X186303105Y-122894282D01*
X186529098Y-122849124D01*
X186744259Y-122766530D01*
X186942407Y-122648878D01*
X187117914Y-122499513D01*
X187265746Y-122322707D01*
X187381674Y-122123524D01*
X187462384Y-121907655D01*
X187505567Y-121681276D01*
X187508029Y-121424770D01*
X187469198Y-121197601D01*
X187392646Y-120980222D01*
X187280567Y-120778859D01*
X187136156Y-120599246D01*
X186963554Y-120446542D01*
X186767686Y-120325100D01*
X186554157Y-120238395D01*
X186329072Y-120188906D01*
X186098872Y-120178050D01*
X185870120Y-120206138D01*
X185820062Y-120221156D01*
X185749067Y-120221572D01*
X185694761Y-120189565D01*
X183626703Y-118121507D01*
X183590596Y-118103109D01*
X183573740Y-118092780D01*
X183540954Y-118068962D01*
X183502425Y-118056443D01*
X183484155Y-118048876D01*
X183448045Y-118030476D01*
X183408016Y-118024137D01*
X183388789Y-118019521D01*
X183350256Y-118007001D01*
X181921837Y-118007000D01*
X181853716Y-117986998D01*
X181807223Y-117933342D01*
X181795837Y-117881000D01*
X181795837Y-116765000D01*
X181776946Y-116694496D01*
X181789534Y-116598885D01*
X181796120Y-116587478D01*
X181858000Y-116356539D01*
X181858000Y-116117463D01*
X181796118Y-115886522D01*
X181676579Y-115679474D01*
X181579905Y-115582801D01*
X181543000Y-115493705D01*
X181543000Y-115446378D01*
X181579905Y-115357282D01*
X182573500Y-114363688D01*
X182591895Y-114327584D01*
X182602227Y-114310724D01*
X182626049Y-114277935D01*
X182638569Y-114239402D01*
X182646135Y-114221137D01*
X182664533Y-114185027D01*
X182670871Y-114145007D01*
X182675487Y-114125778D01*
X182688010Y-114087237D01*
X182688010Y-111618342D01*
X182675487Y-111579801D01*
X182670871Y-111560572D01*
X182664533Y-111520551D01*
X182646135Y-111484442D01*
X182638569Y-111466177D01*
X182626047Y-111427640D01*
X182602227Y-111394855D01*
X182591895Y-111377995D01*
X182573500Y-111341891D01*
X182540983Y-111309373D01*
X181903105Y-110671497D01*
X181866998Y-110653099D01*
X181850142Y-110642770D01*
X181817356Y-110618952D01*
X181778827Y-110606433D01*
X181760557Y-110598866D01*
X181724447Y-110580466D01*
X181684418Y-110574127D01*
X181665191Y-110569511D01*
X181626658Y-110556991D01*
X179983790Y-110556990D01*
X179894696Y-110520087D01*
X179854937Y-110480329D01*
X179818031Y-110391232D01*
X179818031Y-109774776D01*
X179838033Y-109706655D01*
X179891689Y-109660162D01*
X179946259Y-109648796D01*
X179971887Y-109649249D01*
X179974053Y-109648978D01*
X179989711Y-109648001D01*
X182637871Y-109648004D01*
X182646441Y-109648296D01*
X182698026Y-109651813D01*
X182698046Y-109651812D01*
X182704205Y-109651317D01*
X182765022Y-109646049D01*
X182820291Y-109633188D01*
X182826506Y-109631906D01*
X182882411Y-109621834D01*
X182888426Y-109619796D01*
X183004743Y-109579603D01*
X183005204Y-109579406D01*
X183006994Y-109578825D01*
X183008980Y-109578139D01*
X183008993Y-109578177D01*
X183012386Y-109577076D01*
X183012353Y-109576990D01*
X183020735Y-109573779D01*
X183075120Y-109543493D01*
X183078802Y-109541522D01*
X183134152Y-109513060D01*
X183141474Y-109507864D01*
X183141514Y-109507920D01*
X183147096Y-109503489D01*
X183147867Y-109502981D01*
X183152861Y-109499132D01*
X183249922Y-109423401D01*
X183250286Y-109423073D01*
X183251754Y-109421972D01*
X183253452Y-109420647D01*
X183253477Y-109420679D01*
X183256321Y-109418546D01*
X183256263Y-109418476D01*
X183263154Y-109412721D01*
X183304795Y-109366454D01*
X183307640Y-109363396D01*
X183350798Y-109318527D01*
X183356042Y-109311241D01*
X183356097Y-109311281D01*
X183359937Y-109305291D01*
X183360501Y-109304562D01*
X183364064Y-109299174D01*
X183427905Y-109201384D01*
X183481893Y-109155277D01*
X183552238Y-109145677D01*
X183637640Y-109199464D01*
X183671456Y-109249247D01*
X183673746Y-109252741D01*
X183706986Y-109305348D01*
X183712805Y-109312175D01*
X183712752Y-109312220D01*
X183717665Y-109317394D01*
X183718232Y-109318109D01*
X183722480Y-109322711D01*
X183806527Y-109412723D01*
X183806899Y-109413069D01*
X183808167Y-109414479D01*
X183809591Y-109416005D01*
X183809562Y-109416032D01*
X183811940Y-109418678D01*
X183812005Y-109418613D01*
X183818347Y-109424969D01*
X183868123Y-109462359D01*
X183871420Y-109464923D01*
X183919913Y-109503929D01*
X183927635Y-109508507D01*
X183927600Y-109508566D01*
X183933917Y-109511866D01*
X183934700Y-109512368D01*
X183940268Y-109515379D01*
X184048864Y-109573273D01*
X184049329Y-109573480D01*
X184050992Y-109574408D01*
X184052829Y-109575387D01*
X184052810Y-109575422D01*
X184055925Y-109577159D01*
X184055965Y-109577077D01*
X184064025Y-109581036D01*
X184123208Y-109600280D01*
X184127160Y-109601638D01*
X184185686Y-109622839D01*
X184194475Y-109624669D01*
X184194461Y-109624735D01*
X184201505Y-109625811D01*
X184202407Y-109626032D01*
X184208733Y-109627091D01*
X184330151Y-109646675D01*
X184330171Y-109646676D01*
X184364919Y-109647290D01*
X184372261Y-109647906D01*
X184372280Y-109647654D01*
X184376934Y-109648000D01*
X184403989Y-109648000D01*
X184406216Y-109648020D01*
X184475651Y-109649247D01*
X184477818Y-109648976D01*
X184493471Y-109648000D01*
X185889650Y-109647997D01*
X185898220Y-109648289D01*
X185949906Y-109651813D01*
X185949926Y-109651812D01*
X185956085Y-109651317D01*
X186016914Y-109646047D01*
X186072201Y-109633182D01*
X186078417Y-109631900D01*
X186134304Y-109621831D01*
X186140277Y-109619807D01*
X186256636Y-109579599D01*
X186257116Y-109579394D01*
X186258980Y-109578789D01*
X186260870Y-109578136D01*
X186260882Y-109578172D01*
X186264274Y-109577071D01*
X186264242Y-109576987D01*
X186272631Y-109573773D01*
X186327018Y-109543485D01*
X186330701Y-109541513D01*
X186386037Y-109513058D01*
X186393360Y-109507861D01*
X186393400Y-109507917D01*
X186398982Y-109503487D01*
X186399753Y-109502979D01*
X186404816Y-109499078D01*
X186501805Y-109423401D01*
X186502176Y-109423067D01*
X186503670Y-109421946D01*
X186505343Y-109420641D01*
X186505368Y-109420673D01*
X186508222Y-109418532D01*
X186508163Y-109418462D01*
X186515053Y-109412709D01*
X186556701Y-109366433D01*
X186559545Y-109363376D01*
X186602685Y-109318525D01*
X186607930Y-109311236D01*
X186607986Y-109311276D01*
X186611836Y-109305272D01*
X186612392Y-109304554D01*
X186615879Y-109299282D01*
X186682569Y-109197123D01*
X186736555Y-109151015D01*
X186788077Y-109140000D01*
X187033284Y-109140000D01*
X187101405Y-109160002D01*
X187138214Y-109196245D01*
X187168512Y-109241821D01*
X187170768Y-109245340D01*
X187203483Y-109298280D01*
X187209237Y-109305172D01*
X187209184Y-109305216D01*
X187214049Y-109310443D01*
X187214611Y-109311166D01*
X187218860Y-109315865D01*
X187301950Y-109406657D01*
X187302329Y-109407016D01*
X187303619Y-109408480D01*
X187304974Y-109409961D01*
X187304946Y-109409987D01*
X187307301Y-109412660D01*
X187307365Y-109412598D01*
X187313639Y-109419013D01*
X187363045Y-109456905D01*
X187366315Y-109459501D01*
X187414411Y-109498987D01*
X187422089Y-109503643D01*
X187422054Y-109503701D01*
X187428320Y-109507055D01*
X187429095Y-109507563D01*
X187434612Y-109510618D01*
X187542676Y-109569625D01*
X187543157Y-109569845D01*
X187544871Y-109570824D01*
X187546606Y-109571771D01*
X187546588Y-109571804D01*
X187549689Y-109573575D01*
X187549729Y-109573495D01*
X187557746Y-109577533D01*
X187616775Y-109597383D01*
X187620711Y-109598779D01*
X187678984Y-109620550D01*
X187687752Y-109622467D01*
X187687737Y-109622534D01*
X187694764Y-109623680D01*
X187695665Y-109623910D01*
X187701995Y-109625035D01*
X187823233Y-109645835D01*
X187823384Y-109645839D01*
X187823633Y-109645875D01*
X187827680Y-109646276D01*
X187827663Y-109646449D01*
X187847274Y-109649246D01*
X187847304Y-109649081D01*
X187851447Y-109649841D01*
X187851739Y-109649883D01*
X187851899Y-109649924D01*
X187858094Y-109650592D01*
X187994619Y-109664461D01*
X188019562Y-109669581D01*
X188088507Y-109691186D01*
X188111916Y-109701219D01*
X188175108Y-109736247D01*
X188196020Y-109750781D01*
X188250881Y-109797803D01*
X188268443Y-109816245D01*
X188312726Y-109873335D01*
X188326220Y-109894931D01*
X188358119Y-109959758D01*
X188366997Y-109983628D01*
X188387197Y-110061179D01*
X188390894Y-110083272D01*
X188398289Y-110179371D01*
X188398990Y-110182521D01*
X188402000Y-110209899D01*
X188402001Y-123059941D01*
X188400426Y-123077241D01*
X188400576Y-123077257D01*
X188399409Y-123088077D01*
X188385539Y-123224619D01*
X188380419Y-123249562D01*
X188358814Y-123318507D01*
X188348781Y-123341917D01*
X188313751Y-123405112D01*
X188299217Y-123426022D01*
X188252199Y-123480879D01*
X188233757Y-123498442D01*
X188176669Y-123542724D01*
X188155072Y-123556219D01*
X188090237Y-123588121D01*
X188066368Y-123596997D01*
X187988826Y-123617195D01*
X187966734Y-123620893D01*
X187870629Y-123628289D01*
X187867479Y-123628990D01*
X187840101Y-123632000D01*
X168990054Y-123632000D01*
X168972759Y-123630426D01*
X168972743Y-123630576D01*
X168961923Y-123629409D01*
X168825381Y-123615539D01*
X168800438Y-123610419D01*
X168731493Y-123588814D01*
X168708083Y-123578781D01*
X168644888Y-123543751D01*
X168623978Y-123529217D01*
X168569121Y-123482199D01*
X168551558Y-123463757D01*
X168507276Y-123406669D01*
X168493781Y-123385072D01*
X168461879Y-123320237D01*
X168453003Y-123296368D01*
X168432805Y-123218826D01*
X168429107Y-123196734D01*
X168421711Y-123100629D01*
X168421010Y-123097479D01*
X168418000Y-123070101D01*
X168418000Y-120690001D01*
X169544163Y-120690001D01*
X169544163Y-122389998D01*
X169613273Y-122647920D01*
X169728426Y-122785154D01*
X169883574Y-122874729D01*
X170060001Y-122905837D01*
X171759998Y-122905837D01*
X172017920Y-122836727D01*
X172155154Y-122721574D01*
X172244728Y-122566427D01*
X172249439Y-122539712D01*
X172280967Y-122476100D01*
X172341882Y-122439631D01*
X172412842Y-122441884D01*
X172465526Y-122475501D01*
X172537155Y-122552046D01*
X172720723Y-122691380D01*
X172925147Y-122797795D01*
X173144577Y-122868246D01*
X173372732Y-122900717D01*
X173603105Y-122894282D01*
X173829098Y-122849124D01*
X174044259Y-122766530D01*
X174242407Y-122648878D01*
X174417914Y-122499513D01*
X174565749Y-122322703D01*
X174610587Y-122245663D01*
X174662140Y-122196849D01*
X174731900Y-122183656D01*
X174797719Y-122210273D01*
X174824677Y-122239683D01*
X174919680Y-122383764D01*
X175077155Y-122552046D01*
X175260723Y-122691380D01*
X175465147Y-122797795D01*
X175684567Y-122868244D01*
X175736000Y-122875564D01*
X175736001Y-120202960D01*
X175710130Y-120206136D01*
X175489387Y-120272362D01*
X175282960Y-120374833D01*
X175096749Y-120510620D01*
X174936082Y-120675838D01*
X174823069Y-120840271D01*
X174768000Y-120885081D01*
X174697447Y-120893006D01*
X174633810Y-120861529D01*
X174609134Y-120830181D01*
X174580567Y-120778859D01*
X174436156Y-120599246D01*
X174263554Y-120446542D01*
X174067686Y-120325100D01*
X173854157Y-120238395D01*
X173629072Y-120188906D01*
X173398872Y-120178050D01*
X173170124Y-120206138D01*
X172949387Y-120272362D01*
X172742960Y-120374833D01*
X172556749Y-120510620D01*
X172453468Y-120616826D01*
X172391636Y-120651718D01*
X172320757Y-120647642D01*
X172263333Y-120605893D01*
X172241430Y-120561594D01*
X172206727Y-120432081D01*
X172091574Y-120294846D01*
X171936426Y-120205271D01*
X171759999Y-120174163D01*
X170060002Y-120174163D01*
X169802081Y-120243273D01*
X169664846Y-120358426D01*
X169575271Y-120513574D01*
X169544163Y-120690001D01*
X168418000Y-120690001D01*
X168418000Y-110220054D01*
X168419574Y-110202759D01*
X168419424Y-110202743D01*
X168420591Y-110191923D01*
X168434461Y-110055381D01*
X168439581Y-110030438D01*
X168461186Y-109961493D01*
X168471219Y-109938084D01*
X168506247Y-109874892D01*
X168520781Y-109853980D01*
X168567803Y-109799119D01*
X168586245Y-109781557D01*
X168643335Y-109737274D01*
X168664931Y-109723780D01*
X168729758Y-109691881D01*
X168753628Y-109683003D01*
X168831179Y-109662803D01*
X168853272Y-109659106D01*
X168953019Y-109651430D01*
X168953585Y-109651366D01*
X168954439Y-109651297D01*
X169022475Y-109645404D01*
X169080883Y-109631811D01*
X169085865Y-109630758D01*
X169144738Y-109619542D01*
X169150704Y-109617454D01*
X169266635Y-109576092D01*
X169267106Y-109575885D01*
X169268936Y-109575271D01*
X169270853Y-109574587D01*
X169270866Y-109574623D01*
X169274253Y-109573487D01*
X169274219Y-109573402D01*
X169282564Y-109570109D01*
X169336646Y-109539279D01*
X169340309Y-109537271D01*
X169395370Y-109508257D01*
X169402636Y-109502991D01*
X169402675Y-109503045D01*
X169408206Y-109498565D01*
X169408984Y-109498041D01*
X169414062Y-109494046D01*
X169510232Y-109417450D01*
X169510617Y-109417096D01*
X169512171Y-109415905D01*
X169513739Y-109414657D01*
X169513763Y-109414687D01*
X169516594Y-109412519D01*
X169516535Y-109412450D01*
X169523368Y-109406627D01*
X169564551Y-109359937D01*
X169567367Y-109356850D01*
X169610053Y-109311574D01*
X169615226Y-109304232D01*
X169615283Y-109304272D01*
X169619074Y-109298226D01*
X169619624Y-109297501D01*
X169623079Y-109292163D01*
X169683098Y-109198182D01*
X169736620Y-109151536D01*
X169789290Y-109140000D01*
X169932628Y-109140000D01*
X170000749Y-109160002D01*
G37*
G04 #@! TD.AperFunction*
G04 #@! TA.AperFunction,Conductor*
G36*
X177845542Y-118566224D02*
G01*
X177903574Y-118599728D01*
X178080001Y-118630837D01*
X178308451Y-118630837D01*
X178397546Y-118667742D01*
X179588295Y-119858491D01*
X179624399Y-119876887D01*
X179641258Y-119887219D01*
X179674040Y-119911036D01*
X179712576Y-119923557D01*
X179730847Y-119931125D01*
X179766952Y-119949522D01*
X179806986Y-119955863D01*
X179826211Y-119960479D01*
X179864742Y-119972999D01*
X180708759Y-119973000D01*
X180776880Y-119993002D01*
X180823373Y-120046658D01*
X180833477Y-120116932D01*
X180803983Y-120181512D01*
X180744966Y-120219686D01*
X180569387Y-120272362D01*
X180362960Y-120374833D01*
X180176749Y-120510620D01*
X180016082Y-120675838D01*
X179903069Y-120840271D01*
X179848000Y-120885081D01*
X179777447Y-120893006D01*
X179713810Y-120861529D01*
X179689134Y-120830181D01*
X179660567Y-120778859D01*
X179516156Y-120599246D01*
X179343554Y-120446542D01*
X179147686Y-120325100D01*
X178934157Y-120238395D01*
X178709072Y-120188906D01*
X178478872Y-120178050D01*
X178250124Y-120206138D01*
X178184680Y-120225772D01*
X178113685Y-120226188D01*
X178059378Y-120194181D01*
X176710718Y-118845522D01*
X176676693Y-118783210D01*
X176681757Y-118712395D01*
X176724304Y-118655559D01*
X176804499Y-118632702D01*
X176804499Y-118630837D01*
X177469998Y-118630837D01*
X177741248Y-118558156D01*
X177741782Y-118560150D01*
X177794022Y-118549867D01*
X177845542Y-118566224D01*
G37*
G04 #@! TD.AperFunction*
G04 #@! TA.AperFunction,Conductor*
G36*
X178606121Y-112606002D02*
G01*
X178652614Y-112659658D01*
X178664000Y-112712000D01*
X178664000Y-114030837D01*
X178739998Y-114030837D01*
X179011248Y-113958156D01*
X179011782Y-113960150D01*
X179064022Y-113949867D01*
X179115542Y-113966224D01*
X179173574Y-113999728D01*
X179350001Y-114030837D01*
X180009998Y-114030837D01*
X180162255Y-113990040D01*
X180233231Y-113991730D01*
X180292027Y-114031524D01*
X180319975Y-114096788D01*
X180308202Y-114166802D01*
X180283962Y-114200842D01*
X179161511Y-115323295D01*
X179143117Y-115359397D01*
X179132784Y-115376259D01*
X179108963Y-115409044D01*
X179096442Y-115447582D01*
X179088875Y-115465850D01*
X179070478Y-115501957D01*
X179067101Y-115523277D01*
X179036689Y-115587430D01*
X178976421Y-115624957D01*
X178879652Y-115612686D01*
X178760473Y-115543879D01*
X178529538Y-115482000D01*
X178290462Y-115482000D01*
X178059521Y-115543882D01*
X177940349Y-115612685D01*
X177871353Y-115629423D01*
X177804262Y-115606202D01*
X177752901Y-115523280D01*
X177749522Y-115501954D01*
X177731124Y-115465847D01*
X177723557Y-115447577D01*
X177711036Y-115409042D01*
X177687220Y-115376262D01*
X177676891Y-115359406D01*
X177658489Y-115323293D01*
X177489904Y-115154710D01*
X177452999Y-115065615D01*
X177452999Y-114985463D01*
X177391117Y-114754521D01*
X177304406Y-114604332D01*
X177287668Y-114535336D01*
X177304405Y-114478333D01*
X177353772Y-114392826D01*
X177415652Y-114161886D01*
X177415652Y-114142083D01*
X177435654Y-114073962D01*
X177509041Y-114020376D01*
X177741248Y-113958156D01*
X177741782Y-113960150D01*
X177794022Y-113949867D01*
X177845542Y-113966224D01*
X177903574Y-113999728D01*
X178080001Y-114030837D01*
X178156000Y-114030837D01*
X178156000Y-113094000D01*
X177012000Y-113094000D01*
X176943879Y-113073998D01*
X176897386Y-113020342D01*
X176886000Y-112968000D01*
X176886000Y-112712000D01*
X176906002Y-112643879D01*
X176959658Y-112597386D01*
X177012000Y-112586000D01*
X178538000Y-112586000D01*
X178606121Y-112606002D01*
G37*
G04 #@! TD.AperFunction*
G04 #@! TA.AperFunction,Conductor*
G36*
X178102592Y-111134182D02*
G01*
X178160495Y-111178176D01*
X178187802Y-111215760D01*
X178198134Y-111232619D01*
X178216531Y-111268725D01*
X178381874Y-111434068D01*
X178415900Y-111496380D01*
X178410835Y-111567195D01*
X178368288Y-111624031D01*
X178292779Y-111649163D01*
X178080001Y-111649163D01*
X177976611Y-111676866D01*
X177905634Y-111675176D01*
X177846839Y-111635382D01*
X177818000Y-111555159D01*
X177818000Y-111445459D01*
X177809176Y-111412527D01*
X177810866Y-111341551D01*
X177841788Y-111290820D01*
X177969465Y-111163143D01*
X178031777Y-111129117D01*
X178102592Y-111134182D01*
G37*
G04 #@! TD.AperFunction*
G04 #@! TA.AperFunction,Conductor*
G36*
X166360973Y-66668002D02*
G01*
X166407466Y-66721658D01*
X166417570Y-66791932D01*
X166388076Y-66856512D01*
X166356737Y-66880774D01*
X166357521Y-66882065D01*
X166352960Y-66884833D01*
X166166749Y-67020620D01*
X166006080Y-67185840D01*
X165875544Y-67375769D01*
X165778878Y-67584975D01*
X165721939Y-67796000D01*
X168254190Y-67796001D01*
X168254192Y-67796000D01*
X170794190Y-67796001D01*
X170794192Y-67796000D01*
X173334190Y-67796001D01*
X173334192Y-67796000D01*
X175874190Y-67796001D01*
X175874192Y-67796000D01*
X178414190Y-67796001D01*
X178414192Y-67796000D01*
X180954190Y-67796001D01*
X180954192Y-67796000D01*
X183494190Y-67796001D01*
X183494192Y-67796000D01*
X186034190Y-67796001D01*
X186034192Y-67796000D01*
X187508000Y-67796001D01*
X187576121Y-67816003D01*
X187622614Y-67869659D01*
X187634000Y-67922001D01*
X187633999Y-68178000D01*
X187613997Y-68246121D01*
X187560341Y-68292614D01*
X187507999Y-68304000D01*
X183645810Y-68303999D01*
X183645808Y-68304000D01*
X181105810Y-68303999D01*
X181105808Y-68304000D01*
X178565810Y-68303999D01*
X178565808Y-68304000D01*
X176025810Y-68303999D01*
X176025808Y-68304000D01*
X173485810Y-68303999D01*
X173485808Y-68304000D01*
X170945810Y-68303999D01*
X170945808Y-68304000D01*
X168405810Y-68303999D01*
X168405808Y-68304000D01*
X165723726Y-68303999D01*
X165770187Y-68490342D01*
X165862821Y-68701371D01*
X165989680Y-68893764D01*
X166147155Y-69062046D01*
X166330722Y-69201379D01*
X166342344Y-69207429D01*
X166393533Y-69256625D01*
X166409999Y-69325686D01*
X166386513Y-69392686D01*
X166356426Y-69420530D01*
X166357271Y-69421689D01*
X166166749Y-69560620D01*
X166006080Y-69725840D01*
X165875544Y-69915769D01*
X165778877Y-70124978D01*
X165718842Y-70347479D01*
X165697154Y-70576917D01*
X165714434Y-70806733D01*
X165770187Y-71030342D01*
X165862821Y-71241371D01*
X165989680Y-71433764D01*
X166147155Y-71602046D01*
X166330723Y-71741380D01*
X166535147Y-71847795D01*
X166754577Y-71918246D01*
X166982732Y-71950717D01*
X167213105Y-71944282D01*
X167439098Y-71899124D01*
X167654259Y-71816530D01*
X167852407Y-71698878D01*
X168027914Y-71549513D01*
X168175749Y-71372703D01*
X168220587Y-71295663D01*
X168272140Y-71246849D01*
X168341900Y-71233656D01*
X168407719Y-71260273D01*
X168434677Y-71289683D01*
X168529680Y-71433764D01*
X168687155Y-71602046D01*
X168870723Y-71741380D01*
X169075147Y-71847795D01*
X169294577Y-71918246D01*
X169522732Y-71950717D01*
X169753105Y-71944282D01*
X169979098Y-71899124D01*
X170194259Y-71816530D01*
X170392407Y-71698878D01*
X170567914Y-71549513D01*
X170715749Y-71372703D01*
X170760587Y-71295663D01*
X170812140Y-71246849D01*
X170881900Y-71233656D01*
X170947719Y-71260273D01*
X170974677Y-71289683D01*
X171069680Y-71433764D01*
X171227155Y-71602046D01*
X171410723Y-71741380D01*
X171615147Y-71847795D01*
X171834577Y-71918246D01*
X172062732Y-71950717D01*
X172290401Y-71944357D01*
X172383014Y-71981213D01*
X175660294Y-75258492D01*
X175696398Y-75276888D01*
X175713257Y-75287220D01*
X175746039Y-75311037D01*
X175784575Y-75323558D01*
X175802846Y-75331126D01*
X175838951Y-75349523D01*
X175878985Y-75355864D01*
X175898210Y-75360480D01*
X175936741Y-75373000D01*
X177358257Y-75373000D01*
X177396790Y-75360480D01*
X177416017Y-75355864D01*
X177456046Y-75349525D01*
X177492156Y-75331125D01*
X177510426Y-75323558D01*
X177548960Y-75311037D01*
X177568194Y-75297063D01*
X177642254Y-75273000D01*
X180080627Y-75273000D01*
X180148748Y-75293002D01*
X180195241Y-75346658D01*
X180205345Y-75416932D01*
X180169722Y-75488096D01*
X179336510Y-76321307D01*
X179318116Y-76357409D01*
X179307783Y-76374271D01*
X179283962Y-76407056D01*
X179271441Y-76445594D01*
X179263874Y-76463862D01*
X179245476Y-76499970D01*
X179239138Y-76539992D01*
X179234522Y-76559219D01*
X179222000Y-76597758D01*
X179221999Y-79744362D01*
X179201997Y-79812483D01*
X179148341Y-79858976D01*
X179048595Y-79861105D01*
X178894157Y-79798395D01*
X178669072Y-79748906D01*
X178438869Y-79738050D01*
X178210124Y-79766138D01*
X177989387Y-79832362D01*
X177782960Y-79934833D01*
X177596749Y-80070620D01*
X177436082Y-80235838D01*
X177323069Y-80400271D01*
X177268000Y-80445081D01*
X177197447Y-80453006D01*
X177133810Y-80421529D01*
X177109134Y-80390181D01*
X177080567Y-80338859D01*
X176936156Y-80159246D01*
X176763554Y-80006542D01*
X176567686Y-79885100D01*
X176354157Y-79798395D01*
X176129072Y-79748906D01*
X175898869Y-79738050D01*
X175670124Y-79766138D01*
X175449387Y-79832362D01*
X175242960Y-79934833D01*
X175056749Y-80070620D01*
X174896082Y-80235838D01*
X174783069Y-80400271D01*
X174728000Y-80445081D01*
X174657447Y-80453006D01*
X174593810Y-80421529D01*
X174569134Y-80390181D01*
X174540567Y-80338859D01*
X174396156Y-80159246D01*
X174223554Y-80006542D01*
X174027686Y-79885100D01*
X173814157Y-79798395D01*
X173589072Y-79748906D01*
X173358869Y-79738050D01*
X173130124Y-79766138D01*
X172909387Y-79832362D01*
X172702960Y-79934833D01*
X172516749Y-80070620D01*
X172356080Y-80235840D01*
X172225544Y-80425769D01*
X172128877Y-80634978D01*
X172068842Y-80857479D01*
X172047154Y-81086917D01*
X172064434Y-81316733D01*
X172120187Y-81540342D01*
X172212821Y-81751371D01*
X172339680Y-81943764D01*
X172497155Y-82112046D01*
X172513439Y-82124406D01*
X172555606Y-82181524D01*
X172560199Y-82252371D01*
X172525760Y-82314456D01*
X172499934Y-82331587D01*
X172500663Y-82332721D01*
X172305926Y-82457871D01*
X172161719Y-82624293D01*
X172070242Y-82824603D01*
X172046776Y-82987810D01*
X172046776Y-84273623D01*
X172108817Y-84558823D01*
X172227871Y-84744074D01*
X172394293Y-84888281D01*
X172594603Y-84979758D01*
X172757810Y-85003224D01*
X174043623Y-85003224D01*
X174328823Y-84941183D01*
X174514074Y-84822129D01*
X174564235Y-84764240D01*
X175184969Y-84764241D01*
X175220731Y-84791385D01*
X175425142Y-84897794D01*
X175644577Y-84968246D01*
X175872732Y-85000717D01*
X176103105Y-84994282D01*
X176329098Y-84949124D01*
X176544253Y-84866533D01*
X176715591Y-84764800D01*
X175949999Y-83999210D01*
X175184969Y-84764240D01*
X174564235Y-84764240D01*
X174658281Y-84655707D01*
X174738180Y-84480751D01*
X174784673Y-84427095D01*
X174809684Y-84421107D01*
X175860905Y-83369885D01*
X175923217Y-83335860D01*
X175994032Y-83340924D01*
X176039095Y-83369885D01*
X177075374Y-84406163D01*
X177110588Y-84345661D01*
X177162141Y-84296848D01*
X177231901Y-84283655D01*
X177297720Y-84310272D01*
X177324677Y-84339682D01*
X177366970Y-84403821D01*
X178400905Y-83369885D01*
X178463217Y-83335860D01*
X178534032Y-83340924D01*
X178579095Y-83369885D01*
X178760115Y-83550905D01*
X178794141Y-83613217D01*
X178789076Y-83684032D01*
X178760115Y-83729095D01*
X177724969Y-84764241D01*
X177760731Y-84791385D01*
X177965142Y-84897794D01*
X178184577Y-84968246D01*
X178412732Y-85000717D01*
X178643105Y-84994282D01*
X178869093Y-84949125D01*
X178905845Y-84935017D01*
X178976609Y-84929278D01*
X179039243Y-84962708D01*
X179077000Y-85052648D01*
X179077000Y-85748205D01*
X179040095Y-85837300D01*
X177391512Y-87485883D01*
X177373117Y-87521987D01*
X177362784Y-87538849D01*
X177338963Y-87571634D01*
X177326442Y-87610172D01*
X177318875Y-87628440D01*
X177300477Y-87664548D01*
X177294139Y-87704570D01*
X177289523Y-87723797D01*
X177277001Y-87762336D01*
X177277000Y-90436610D01*
X177240096Y-90525705D01*
X176655899Y-91109903D01*
X176593586Y-91143928D01*
X176522771Y-91138864D01*
X176483311Y-91115174D01*
X176473555Y-91106542D01*
X176277686Y-90985100D01*
X176064157Y-90898395D01*
X175839072Y-90848906D01*
X175608872Y-90838050D01*
X175380124Y-90866138D01*
X175159387Y-90932362D01*
X174952960Y-91034833D01*
X174766749Y-91170620D01*
X174606080Y-91335840D01*
X174475544Y-91525769D01*
X174378877Y-91734978D01*
X174318842Y-91957479D01*
X174297154Y-92186917D01*
X174314434Y-92416733D01*
X174370187Y-92640342D01*
X174462821Y-92851371D01*
X174589680Y-93043764D01*
X174747155Y-93212046D01*
X174763439Y-93224406D01*
X174805606Y-93281524D01*
X174810199Y-93352371D01*
X174775760Y-93414456D01*
X174749934Y-93431587D01*
X174750663Y-93432721D01*
X174555926Y-93557871D01*
X174411719Y-93724293D01*
X174320242Y-93924603D01*
X174296776Y-94087810D01*
X174296776Y-95373623D01*
X174358817Y-95658823D01*
X174477871Y-95844074D01*
X174644293Y-95988281D01*
X174844603Y-96079758D01*
X175007810Y-96103224D01*
X176265999Y-96103224D01*
X176334120Y-96123226D01*
X176380613Y-96176882D01*
X176391999Y-96229224D01*
X176392000Y-99855256D01*
X176404520Y-99893787D01*
X176409136Y-99913012D01*
X176415477Y-99953046D01*
X176433874Y-99989151D01*
X176441442Y-100007422D01*
X176453964Y-100045961D01*
X176477780Y-100078740D01*
X176488112Y-100095599D01*
X176506509Y-100131705D01*
X176655481Y-100280677D01*
X177799558Y-101424755D01*
X177833584Y-101487067D01*
X177828519Y-101557883D01*
X177785972Y-101614718D01*
X177719452Y-101639529D01*
X177647463Y-101622969D01*
X177510473Y-101543879D01*
X177279538Y-101482000D01*
X177040462Y-101482000D01*
X176809520Y-101543882D01*
X176598000Y-101666002D01*
X176529004Y-101682740D01*
X176472000Y-101666002D01*
X176260473Y-101543879D01*
X176029538Y-101482000D01*
X175790462Y-101482000D01*
X175559521Y-101543882D01*
X175352469Y-101663424D01*
X175183424Y-101832469D01*
X175183417Y-101832479D01*
X175063879Y-102039527D01*
X175002000Y-102270462D01*
X175002000Y-102509538D01*
X175063882Y-102740479D01*
X175183424Y-102947531D01*
X175352469Y-103116576D01*
X175352479Y-103116583D01*
X175559527Y-103236121D01*
X175790462Y-103298000D01*
X175870613Y-103298000D01*
X175959709Y-103334905D01*
X177165098Y-104540296D01*
X177202002Y-104629391D01*
X177202001Y-107756003D01*
X177181999Y-107824124D01*
X177128343Y-107870617D01*
X177076001Y-107882003D01*
X174878710Y-107882000D01*
X174870771Y-107881750D01*
X174817525Y-107878388D01*
X174811121Y-107878936D01*
X174746832Y-107884829D01*
X174690055Y-107898342D01*
X174684462Y-107899540D01*
X174627124Y-107910464D01*
X174621051Y-107912590D01*
X174505236Y-107953914D01*
X174504762Y-107954122D01*
X174502924Y-107954739D01*
X174501009Y-107955422D01*
X174500996Y-107955386D01*
X174497618Y-107956519D01*
X174497651Y-107956602D01*
X174489303Y-107959897D01*
X174435238Y-107990719D01*
X174431573Y-107992728D01*
X174376495Y-108021750D01*
X174369228Y-108027018D01*
X174369188Y-108026963D01*
X174363630Y-108031465D01*
X174362874Y-108031973D01*
X174357974Y-108035827D01*
X174261625Y-108112567D01*
X174261260Y-108112903D01*
X174259782Y-108114035D01*
X174258126Y-108115354D01*
X174258101Y-108115323D01*
X174255270Y-108117491D01*
X174255329Y-108117561D01*
X174248495Y-108123385D01*
X174207315Y-108170073D01*
X174204499Y-108173160D01*
X174161815Y-108218434D01*
X174156643Y-108225776D01*
X174156587Y-108225737D01*
X174152804Y-108231770D01*
X174152233Y-108232523D01*
X174148905Y-108237668D01*
X174120709Y-108281818D01*
X174067186Y-108328464D01*
X174014517Y-108340000D01*
X173880486Y-108340000D01*
X173812365Y-108319998D01*
X173780054Y-108290088D01*
X173744311Y-108242909D01*
X173741842Y-108239536D01*
X173705932Y-108188719D01*
X173699766Y-108182198D01*
X173699817Y-108182150D01*
X173694642Y-108177235D01*
X173694041Y-108176553D01*
X173689549Y-108172161D01*
X173600847Y-108086494D01*
X173600451Y-108086163D01*
X173599081Y-108084789D01*
X173597614Y-108083372D01*
X173597641Y-108083344D01*
X173595123Y-108080819D01*
X173595062Y-108080887D01*
X173588403Y-108074869D01*
X173536778Y-108040109D01*
X173533353Y-108037720D01*
X173482894Y-108001257D01*
X173474950Y-107997087D01*
X173474982Y-107997025D01*
X173468502Y-107994055D01*
X173467702Y-107993598D01*
X173462211Y-107990985D01*
X173350356Y-107938581D01*
X173349875Y-107938396D01*
X173348143Y-107937544D01*
X173346290Y-107936676D01*
X173346306Y-107936641D01*
X173343108Y-107935068D01*
X173343073Y-107935150D01*
X173334820Y-107931613D01*
X173274679Y-107915438D01*
X173270664Y-107914287D01*
X173211159Y-107896148D01*
X173202291Y-107894775D01*
X173202301Y-107894708D01*
X173195211Y-107893996D01*
X173194301Y-107893822D01*
X173188088Y-107893108D01*
X173065448Y-107879779D01*
X173002222Y-107881930D01*
X172997939Y-107882003D01*
X170821976Y-107882000D01*
X170817719Y-107881928D01*
X170754447Y-107879789D01*
X170748336Y-107880492D01*
X170658550Y-107891379D01*
X170591681Y-107909375D01*
X170590321Y-107909733D01*
X170523317Y-107926965D01*
X170522798Y-107927141D01*
X170517723Y-107929331D01*
X170404295Y-107978117D01*
X170403844Y-107978350D01*
X170402084Y-107979068D01*
X170400172Y-107979890D01*
X170400156Y-107979854D01*
X170396860Y-107981198D01*
X170396899Y-107981281D01*
X170388774Y-107985100D01*
X170336751Y-108019301D01*
X170333226Y-108021536D01*
X170280117Y-108053985D01*
X170273198Y-108059703D01*
X170273155Y-108059651D01*
X170267922Y-108064470D01*
X170267191Y-108065033D01*
X170262412Y-108069310D01*
X170171147Y-108151984D01*
X170170793Y-108152354D01*
X170169347Y-108153614D01*
X170167819Y-108154999D01*
X170167793Y-108154970D01*
X170165110Y-108157309D01*
X170165173Y-108157374D01*
X170158723Y-108163619D01*
X170120559Y-108212858D01*
X170117947Y-108216114D01*
X170078236Y-108263987D01*
X170073540Y-108271641D01*
X170073482Y-108271605D01*
X170070094Y-108277858D01*
X170067006Y-108282520D01*
X170065337Y-108281414D01*
X170020534Y-108325244D01*
X169961366Y-108340000D01*
X169757391Y-108340000D01*
X169689270Y-108319998D01*
X169653154Y-108284787D01*
X169650422Y-108280764D01*
X169648140Y-108277281D01*
X169614904Y-108224680D01*
X169609082Y-108217847D01*
X169609133Y-108217803D01*
X169604241Y-108212650D01*
X169603652Y-108211908D01*
X169599336Y-108207230D01*
X169515373Y-108117303D01*
X169514994Y-108116951D01*
X169513699Y-108115510D01*
X169512304Y-108114016D01*
X169512332Y-108113990D01*
X169509948Y-108111336D01*
X169509883Y-108111401D01*
X169503542Y-108105045D01*
X169453736Y-108067630D01*
X169450440Y-108065067D01*
X169401982Y-108026087D01*
X169394258Y-108021507D01*
X169394293Y-108021448D01*
X169387987Y-108018153D01*
X169387197Y-108017647D01*
X169381610Y-108014626D01*
X169273018Y-107956731D01*
X169272555Y-107956525D01*
X169270902Y-107955603D01*
X169269064Y-107954623D01*
X169269083Y-107954588D01*
X169265967Y-107952850D01*
X169265927Y-107952932D01*
X169257868Y-107948972D01*
X169198662Y-107929719D01*
X169194711Y-107928362D01*
X169136206Y-107907168D01*
X169127422Y-107905338D01*
X169127436Y-107905272D01*
X169120396Y-107904196D01*
X169119490Y-107903974D01*
X169113495Y-107902970D01*
X168991729Y-107883325D01*
X168987277Y-107882929D01*
X168987328Y-107882351D01*
X168972805Y-107880353D01*
X168972701Y-107880920D01*
X168968096Y-107880075D01*
X168961923Y-107879409D01*
X168825381Y-107865539D01*
X168800438Y-107860419D01*
X168731493Y-107838814D01*
X168708083Y-107828781D01*
X168644888Y-107793751D01*
X168623978Y-107779217D01*
X168569121Y-107732199D01*
X168551558Y-107713757D01*
X168507276Y-107656669D01*
X168493781Y-107635072D01*
X168461879Y-107570237D01*
X168453003Y-107546368D01*
X168432805Y-107468826D01*
X168429107Y-107446734D01*
X168421711Y-107350629D01*
X168421010Y-107347479D01*
X168418000Y-107320101D01*
X168418000Y-77183290D01*
X168419154Y-77166277D01*
X168423211Y-77136505D01*
X168412717Y-77066623D01*
X168412593Y-77065774D01*
X168402573Y-76995810D01*
X168402129Y-76994345D01*
X168401634Y-76992674D01*
X168386019Y-76959475D01*
X168385335Y-76957997D01*
X168342362Y-76863485D01*
X168320190Y-76837754D01*
X168310803Y-76825396D01*
X165439162Y-72517934D01*
X165418000Y-72448042D01*
X165418000Y-67220054D01*
X165419574Y-67202759D01*
X165419424Y-67202743D01*
X165420591Y-67191923D01*
X165434461Y-67055381D01*
X165439581Y-67030438D01*
X165461186Y-66961493D01*
X165471219Y-66938084D01*
X165506247Y-66874892D01*
X165520781Y-66853980D01*
X165567803Y-66799119D01*
X165586245Y-66781557D01*
X165643335Y-66737274D01*
X165664931Y-66723780D01*
X165729758Y-66691881D01*
X165753628Y-66683003D01*
X165831179Y-66662803D01*
X165853272Y-66659106D01*
X165949371Y-66651711D01*
X165952521Y-66651010D01*
X165979899Y-66648000D01*
X166292852Y-66648000D01*
X166360973Y-66668002D01*
G37*
G04 #@! TD.AperFunction*
G04 #@! TA.AperFunction,Conductor*
G36*
X191353889Y-71732538D02*
G01*
X191395071Y-71790371D01*
X191402001Y-71831581D01*
X191402001Y-72448039D01*
X191380839Y-72517931D01*
X188511336Y-76822187D01*
X188500939Y-76835702D01*
X188481045Y-76858228D01*
X188450997Y-76922228D01*
X188450630Y-76923003D01*
X188420173Y-76986743D01*
X188419735Y-76988191D01*
X188419365Y-76989392D01*
X188419214Y-76989873D01*
X188413793Y-77026148D01*
X188413542Y-77027756D01*
X188396870Y-77130238D01*
X188401046Y-77163956D01*
X188402001Y-77179442D01*
X188402000Y-107309946D01*
X188400426Y-107327241D01*
X188400576Y-107327257D01*
X188399409Y-107338077D01*
X188385539Y-107474619D01*
X188380419Y-107499562D01*
X188358814Y-107568507D01*
X188348781Y-107591917D01*
X188313751Y-107655112D01*
X188299217Y-107676022D01*
X188252199Y-107730879D01*
X188233757Y-107748442D01*
X188176669Y-107792724D01*
X188155072Y-107806219D01*
X188090237Y-107838121D01*
X188066368Y-107846997D01*
X187988826Y-107867195D01*
X187966734Y-107870893D01*
X187866627Y-107878597D01*
X187866095Y-107878659D01*
X187865543Y-107878705D01*
X187804952Y-107883954D01*
X187749656Y-107896821D01*
X187743442Y-107898103D01*
X187687542Y-107908176D01*
X187681590Y-107910192D01*
X187565219Y-107950409D01*
X187564741Y-107950613D01*
X187562897Y-107951211D01*
X187560982Y-107951873D01*
X187560969Y-107951837D01*
X187557580Y-107952936D01*
X187557612Y-107953021D01*
X187549232Y-107956232D01*
X187494833Y-107986527D01*
X187491152Y-107988497D01*
X187435813Y-108016956D01*
X187428490Y-108022153D01*
X187428450Y-108022097D01*
X187422867Y-108026528D01*
X187422101Y-108027032D01*
X187417042Y-108030931D01*
X187320052Y-108106611D01*
X187319669Y-108106956D01*
X187318128Y-108108112D01*
X187316517Y-108109369D01*
X187316493Y-108109338D01*
X187313642Y-108111477D01*
X187313700Y-108111547D01*
X187306810Y-108117300D01*
X187265173Y-108163567D01*
X187262326Y-108166627D01*
X187219179Y-108211485D01*
X187213938Y-108218769D01*
X187213882Y-108218729D01*
X187210036Y-108224728D01*
X187209468Y-108225462D01*
X187205909Y-108230844D01*
X187171944Y-108282875D01*
X187117958Y-108328984D01*
X187066435Y-108340000D01*
X186755556Y-108340000D01*
X186687435Y-108319998D01*
X186648369Y-108280234D01*
X186618397Y-108231730D01*
X186612644Y-108224841D01*
X186612698Y-108224796D01*
X186607828Y-108219563D01*
X186607273Y-108218849D01*
X186603008Y-108214132D01*
X186519936Y-108123358D01*
X186519569Y-108123010D01*
X186518312Y-108121583D01*
X186516908Y-108120049D01*
X186516937Y-108120022D01*
X186514582Y-108117349D01*
X186514516Y-108117413D01*
X186508244Y-108110999D01*
X186458861Y-108073125D01*
X186455588Y-108070527D01*
X186407468Y-108031020D01*
X186399792Y-108026364D01*
X186399827Y-108026306D01*
X186393546Y-108022943D01*
X186392787Y-108022446D01*
X186387128Y-108019311D01*
X186279196Y-107960374D01*
X186278724Y-107960158D01*
X186277037Y-107959195D01*
X186275281Y-107958236D01*
X186275299Y-107958203D01*
X186272202Y-107956435D01*
X186272162Y-107956514D01*
X186264142Y-107952475D01*
X186205143Y-107932634D01*
X186201206Y-107931237D01*
X186142899Y-107909452D01*
X186134133Y-107907535D01*
X186134148Y-107907468D01*
X186127098Y-107906319D01*
X186126212Y-107906093D01*
X186119860Y-107904963D01*
X185998671Y-107884169D01*
X185960459Y-107883111D01*
X185951499Y-107882319D01*
X185951497Y-107882347D01*
X185946826Y-107882000D01*
X185922124Y-107882000D01*
X185918636Y-107881952D01*
X185853213Y-107880140D01*
X185844299Y-107881166D01*
X185844179Y-107880125D01*
X185829867Y-107882000D01*
X184434065Y-107882000D01*
X184425495Y-107881708D01*
X184373852Y-107878187D01*
X184373832Y-107878188D01*
X184367463Y-107878701D01*
X184299384Y-107884599D01*
X184240985Y-107898189D01*
X184236009Y-107899241D01*
X184177116Y-107910462D01*
X184171176Y-107912541D01*
X184055222Y-107953915D01*
X184054753Y-107954121D01*
X184052932Y-107954732D01*
X184050990Y-107955425D01*
X184050977Y-107955388D01*
X184047601Y-107956521D01*
X184047635Y-107956606D01*
X184039280Y-107959904D01*
X183985200Y-107990734D01*
X183981539Y-107992741D01*
X183926481Y-108021755D01*
X183919208Y-108027027D01*
X183919168Y-108026971D01*
X183913618Y-108031467D01*
X183912866Y-108031973D01*
X183907966Y-108035827D01*
X183811619Y-108112569D01*
X183811255Y-108112904D01*
X183809780Y-108114034D01*
X183808110Y-108115364D01*
X183808085Y-108115332D01*
X183805255Y-108117500D01*
X183805314Y-108117569D01*
X183798480Y-108123393D01*
X183757289Y-108170096D01*
X183754473Y-108173185D01*
X183711798Y-108218451D01*
X183706631Y-108225787D01*
X183706574Y-108225747D01*
X183702786Y-108231789D01*
X183702228Y-108232525D01*
X183698870Y-108237713D01*
X183670707Y-108281815D01*
X183617185Y-108328462D01*
X183564513Y-108340000D01*
X183503674Y-108340000D01*
X183435553Y-108319998D01*
X183396486Y-108280232D01*
X183366527Y-108231746D01*
X183360771Y-108224854D01*
X183360825Y-108224809D01*
X183355956Y-108219576D01*
X183355397Y-108218857D01*
X183351133Y-108214142D01*
X183268057Y-108123360D01*
X183267681Y-108123004D01*
X183266398Y-108121547D01*
X183265034Y-108120057D01*
X183265062Y-108120031D01*
X183262708Y-108117359D01*
X183262644Y-108117422D01*
X183256367Y-108111004D01*
X183206966Y-108073113D01*
X183203696Y-108070518D01*
X183155594Y-108031025D01*
X183147918Y-108026369D01*
X183147953Y-108026311D01*
X183141684Y-108022955D01*
X183140919Y-108022454D01*
X183135122Y-108019243D01*
X183027355Y-107960396D01*
X183026875Y-107960176D01*
X183025159Y-107959196D01*
X183023408Y-107958240D01*
X183023426Y-107958207D01*
X183020328Y-107956437D01*
X183020287Y-107956518D01*
X183012273Y-107952481D01*
X182953267Y-107932637D01*
X182949330Y-107931240D01*
X182891035Y-107909458D01*
X182882263Y-107907540D01*
X182882278Y-107907473D01*
X182875251Y-107906327D01*
X182874354Y-107906098D01*
X182868265Y-107905015D01*
X182746809Y-107884171D01*
X182703927Y-107882982D01*
X182695866Y-107882270D01*
X182695860Y-107882351D01*
X182691204Y-107882005D01*
X182670438Y-107882005D01*
X182666949Y-107881957D01*
X182601343Y-107880139D01*
X182592429Y-107881165D01*
X182592311Y-107880144D01*
X182577975Y-107882005D01*
X179944031Y-107882002D01*
X179875910Y-107862000D01*
X179829417Y-107808344D01*
X179818031Y-107756002D01*
X179818031Y-104429355D01*
X179854936Y-104340260D01*
X180860292Y-103334905D01*
X180949387Y-103298000D01*
X181029538Y-103298000D01*
X181260479Y-103236118D01*
X181467531Y-103116576D01*
X181636576Y-102947531D01*
X181636583Y-102947521D01*
X181756121Y-102740473D01*
X181818000Y-102509538D01*
X181818000Y-102270462D01*
X181756118Y-102039521D01*
X181636576Y-101832469D01*
X181467531Y-101663424D01*
X181467521Y-101663417D01*
X181260473Y-101543879D01*
X181029538Y-101482000D01*
X180949386Y-101482000D01*
X180860291Y-101445095D01*
X180561702Y-101146506D01*
X180525595Y-101128108D01*
X180508739Y-101117779D01*
X180475953Y-101093961D01*
X180437424Y-101081442D01*
X180419154Y-101073875D01*
X180383044Y-101055475D01*
X180343015Y-101049136D01*
X180323788Y-101044520D01*
X180285255Y-101032000D01*
X179885796Y-101031999D01*
X179796701Y-100995094D01*
X178144914Y-99343308D01*
X178108009Y-99254213D01*
X178108009Y-96223658D01*
X178128011Y-96155537D01*
X178181667Y-96109044D01*
X178230491Y-96097707D01*
X178353105Y-96094282D01*
X178579098Y-96049124D01*
X178794259Y-95966530D01*
X178966534Y-95864240D01*
X179974969Y-95864241D01*
X180010731Y-95891385D01*
X180215142Y-95997794D01*
X180434577Y-96068246D01*
X180662732Y-96100717D01*
X180893105Y-96094282D01*
X181119098Y-96049124D01*
X181334253Y-95966533D01*
X181505591Y-95864800D01*
X180739999Y-95099210D01*
X179974969Y-95864240D01*
X178966534Y-95864240D01*
X178992407Y-95848878D01*
X179167914Y-95699513D01*
X179315749Y-95522703D01*
X179360587Y-95445663D01*
X179412140Y-95396849D01*
X179481900Y-95383656D01*
X179547719Y-95410273D01*
X179574677Y-95439682D01*
X179616970Y-95503821D01*
X180380792Y-94739999D01*
X181099210Y-94739999D01*
X181099210Y-94740001D01*
X181865374Y-95506163D01*
X181971672Y-95323528D01*
X182052384Y-95107655D01*
X182095567Y-94881276D01*
X182098029Y-94624770D01*
X182059198Y-94397601D01*
X181982646Y-94180222D01*
X181870569Y-93978860D01*
X181866015Y-93973195D01*
X181099210Y-94739999D01*
X180380792Y-94739999D01*
X181504601Y-93616189D01*
X181441492Y-93577060D01*
X181394137Y-93524164D01*
X181382897Y-93454063D01*
X181411340Y-93389013D01*
X181443559Y-93361632D01*
X181532410Y-93308876D01*
X181707914Y-93159513D01*
X181855746Y-92982707D01*
X181971674Y-92783524D01*
X182052384Y-92567655D01*
X182095567Y-92341276D01*
X182098029Y-92084770D01*
X182059198Y-91857601D01*
X181982646Y-91640222D01*
X181870567Y-91438859D01*
X181726156Y-91259246D01*
X181553554Y-91106542D01*
X181357686Y-90985100D01*
X181144157Y-90898395D01*
X180919072Y-90848906D01*
X180688872Y-90838050D01*
X180460124Y-90866138D01*
X180239387Y-90932362D01*
X180032952Y-91034838D01*
X179909607Y-91124783D01*
X179842781Y-91148759D01*
X179746273Y-91112073D01*
X179079905Y-90445707D01*
X179043000Y-90356611D01*
X179043000Y-88313388D01*
X179079905Y-88224293D01*
X182576590Y-84727610D01*
X182638902Y-84693584D01*
X182709718Y-84698649D01*
X182741865Y-84716342D01*
X182840723Y-84791380D01*
X183045147Y-84897795D01*
X183264577Y-84968246D01*
X183492732Y-85000717D01*
X183723105Y-84994282D01*
X183949098Y-84949124D01*
X184164259Y-84866530D01*
X184362407Y-84748878D01*
X184537914Y-84599513D01*
X184685746Y-84422707D01*
X184801674Y-84223524D01*
X184882384Y-84007655D01*
X184925567Y-83781276D01*
X184928029Y-83524770D01*
X184889198Y-83297601D01*
X184812646Y-83080222D01*
X184700567Y-82878859D01*
X184556156Y-82699246D01*
X184383552Y-82546540D01*
X184271491Y-82477059D01*
X184224136Y-82424163D01*
X184212897Y-82354062D01*
X184241341Y-82289012D01*
X184273559Y-82261632D01*
X184362410Y-82208876D01*
X184537914Y-82059513D01*
X184685746Y-81882707D01*
X184801674Y-81683524D01*
X184882384Y-81467655D01*
X184925567Y-81241276D01*
X184928029Y-80984770D01*
X184889198Y-80757601D01*
X184812646Y-80540222D01*
X184700567Y-80338859D01*
X184556156Y-80159246D01*
X184383554Y-80006542D01*
X184187686Y-79885100D01*
X183974157Y-79798395D01*
X183749072Y-79748906D01*
X183518869Y-79738050D01*
X183290124Y-79766138D01*
X183069387Y-79832362D01*
X182862960Y-79934833D01*
X182676749Y-80070620D01*
X182516082Y-80235838D01*
X182403069Y-80400271D01*
X182348000Y-80445081D01*
X182277447Y-80453006D01*
X182213810Y-80421529D01*
X182189134Y-80390181D01*
X182160567Y-80338859D01*
X182016156Y-80159246D01*
X181843554Y-80006542D01*
X181647686Y-79885100D01*
X181434157Y-79798395D01*
X181209072Y-79748906D01*
X180978869Y-79738050D01*
X180750126Y-79766138D01*
X180650207Y-79796115D01*
X180579211Y-79796531D01*
X180519261Y-79758499D01*
X180487999Y-79675429D01*
X180487999Y-77012400D01*
X180524904Y-76923305D01*
X182178491Y-75269718D01*
X182196887Y-75233614D01*
X182207219Y-75216755D01*
X182231036Y-75183973D01*
X182243557Y-75145437D01*
X182251125Y-75127166D01*
X182269522Y-75091061D01*
X182275863Y-75051027D01*
X182280479Y-75031802D01*
X182292999Y-74993271D01*
X182293000Y-73204387D01*
X182329905Y-73115291D01*
X183010292Y-72434905D01*
X183099387Y-72398001D01*
X188845255Y-72398000D01*
X188883788Y-72385480D01*
X188903015Y-72380864D01*
X188943044Y-72374525D01*
X188979154Y-72356125D01*
X188997424Y-72348558D01*
X189035959Y-72336037D01*
X189068739Y-72312221D01*
X189085595Y-72301892D01*
X189121708Y-72283490D01*
X189412454Y-71992742D01*
X189501549Y-71955837D01*
X190769998Y-71955837D01*
X191027920Y-71886727D01*
X191165154Y-71771574D01*
X191166882Y-71768581D01*
X191170802Y-71764843D01*
X191172238Y-71763132D01*
X191172429Y-71763292D01*
X191218265Y-71719588D01*
X191287978Y-71706152D01*
X191353889Y-71732538D01*
G37*
G04 #@! TD.AperFunction*
M02*
